<svg width="24" height="25" viewBox="0 0 24 25" fill="none" xmlns="http://www.w3.org/2000/svg">
<g clip-path="url(#clip0_1831_58994)">
<path d="M12.6562 18.1719C12.6562 21.6734 9.82965 24.5 6.32812 24.5C2.8266 24.5 0 21.6734 0 18.1719C0 14.6703 2.8266 11.8438 6.32812 11.8438C9.82965 11.8438 12.6562 14.6703 12.6562 18.1719Z" fill="#1D47A1"/>
<path d="M12.6562 18.1719C12.6562 21.6734 9.82965 24.5 6.32812 24.5V11.8438C9.82965 11.8438 12.6562 14.6703 12.6562 18.1719Z" fill="#1D47A1"/>
<path d="M8.92969 17.2578L6.32812 19.8735L5.625 20.5766L3.72656 18.6641L4.71094 17.6797L5.625 18.5797L6.32812 17.8765L7.94531 16.2734L8.92969 17.2578Z" fill="#FFF5F5"/>
<path d="M8.92969 17.2578L6.32812 19.8735V17.8765L7.94531 16.2734L8.92969 17.2578Z" fill="#EFE2DD"/>
<path d="M18.4921 14.9516L16.5093 16.9344C15.8906 17.5673 15.0327 17.8624 14.0906 17.8624C12.5015 17.8624 10.6171 17.0187 9.05616 15.4438C6.53901 12.9406 5.89209 9.66406 7.56549 7.99066L9.54834 6.00781L18.4921 14.9516Z" fill="#ee3824"/>
<path d="M18.4921 14.9516L16.5093 16.9344C15.8906 17.5673 15.0327 17.8624 14.0906 17.8624C12.5015 17.8624 10.6171 17.0187 9.05615 15.4438L14.0201 10.4796L18.4921 14.9516Z" fill="#ee3824"/>
<path d="M18.4922 14.9516C17.8874 15.5562 17.0578 15.8657 16.0875 15.8657C15.7218 15.8657 15.3281 15.8234 14.9204 15.725C13.5703 15.4156 12.1921 14.6141 11.0391 13.4609C9.88606 12.3077 9.08443 10.9297 8.77498 9.57983C8.42342 8.11718 8.70467 6.83764 9.54842 6.00781C10.8703 4.67187 13.2891 4.7984 15.5532 6.30316L18.1969 8.94702C19.7016 11.2109 19.8281 13.6296 18.4922 14.9516Z" fill="#ee3824"/>
<path d="M18.4922 14.9516C17.8874 15.5562 17.0577 15.8657 16.0875 15.8657C15.7218 15.8657 15.3281 15.8234 14.9203 15.725C13.5703 15.4156 12.1921 14.6141 11.0391 13.4609L16.875 7.625L18.1968 8.94684C19.7016 11.2109 19.8281 13.6296 18.4922 14.9516Z" fill="#ee3824"/>
<path d="M23.0439 4.93885L15.2299 11.2672C14.6954 11.2672 14.1891 11.0562 13.8236 10.6766C13.4438 10.311 13.2329 9.80469 13.2329 9.27039L19.5565 1.45124C20.4564 0.298224 22.2001 0.157599 23.2689 1.2262C24.3377 2.28089 24.2112 4.02479 23.0439 4.93885Z" fill="#ee3824"/>
<path d="M23.0438 4.93884L15.2297 11.2672C14.6953 11.2672 14.189 11.0562 13.8235 10.6766L23.2688 1.2262C24.3376 2.28088 24.2111 4.02478 23.0438 4.93884Z" fill="#ee3824"/>
</g>
<defs>
<clipPath id="clip0_1831_58994">
<rect width="24" height="24" fill="white" transform="translate(0 0.5)"/>
</clipPath>
</defs>
</svg>
