<svg width="18" height="18" viewBox="0 0 18 18" fill="none" xmlns="http://www.w3.org/2000/svg">
<path d="M9 0C10.78 0 12.5201 0.527841 14.0001 1.51677C15.4802 2.50571 16.6337 3.91131 17.3149 5.55585C17.9961 7.20038 18.1743 9.00998 17.8271 10.7558C17.4798 12.5016 16.6226 14.1053 15.364 15.364C14.1053 16.6226 12.5016 17.4798 10.7558 17.8271C9.00998 18.1743 7.20038 17.9961 5.55585 17.3149C3.91131 16.6337 2.50571 15.4802 1.51677 14.0001C0.527841 12.5201 0 10.78 0 9C0 6.61305 0.948212 4.32387 2.63604 2.63604C4.32387 0.948212 6.61305 0 9 0Z" fill="#F0B90B"/>
<path d="M5.16954 6.71388L9.00354 2.87988L10.5323 4.40862L6.69834 8.24262L5.16954 6.71388ZM5.17236 11.2954L11.2994 5.16828L12.8282 6.69702L6.7011 12.8242L5.17236 11.2954ZM13.591 7.46388L7.46388 13.5913L8.99256 15.1199L15.1199 8.99286L13.591 7.46388ZM2.87988 9.00312L4.40862 7.47438L5.93736 9.00312L4.40862 10.5319L2.87988 9.00312Z" fill="white"/>
</svg>
