<svg width="14" height="14" viewBox="0 0 14 14" fill="none" xmlns="http://www.w3.org/2000/svg">
<g clip-path="url(#clip0_1286_19494)">
<path d="M12.3261 3.34785H10.8652L10.0587 2.13046C9.75435 1.67394 9.22174 1.40002 8.67391 1.40002H5.32609C4.77826 1.40002 4.24565 1.67394 3.9413 2.13046L3.13478 3.34785H1.67391C0.745652 3.34785 0 4.0935 0 5.02176V10.9261C0 11.8544 0.745652 12.6 1.67391 12.6H12.3261C13.2543 12.6 14 11.8544 14 10.9261V5.02176C14 4.0935 13.2543 3.34785 12.3261 3.34785ZM7 11.2305C4.91522 11.2305 3.22609 9.54133 3.22609 7.45655C3.22609 5.37176 4.91522 3.69785 7 3.69785C9.08478 3.69785 10.7739 5.38698 10.7739 7.47176C10.7739 9.54133 9.08478 11.2305 7 11.2305ZM12.113 5.70655C12.0978 5.70655 12.0826 5.70655 12.0522 5.70655H11.4435C11.1696 5.69133 10.9565 5.46307 10.9717 5.18915C10.987 4.93046 11.1848 4.73263 11.4435 4.71742H12.0522C12.3261 4.7022 12.5543 4.91524 12.5696 5.18915C12.5848 5.46307 12.387 5.69133 12.113 5.70655Z" fill="#383C4A"/>
<path d="M6.99941 5.3717C5.84289 5.3717 4.89941 6.31518 4.89941 7.4717C4.89941 8.62823 5.84289 9.55649 6.99941 9.55649C8.15594 9.55649 9.09941 8.61301 9.09941 7.45649C9.09941 6.29997 8.15594 5.3717 6.99941 5.3717Z" fill="#383C4A"/>
</g>
<defs>
<clipPath id="clip0_1286_19494">
<rect width="14" height="14" fill="white"/>
</clipPath>
</defs>
</svg>
