<svg width="20" height="20" viewBox="0 0 20 20" fill="none" xmlns="http://www.w3.org/2000/svg">
<path fill-rule="evenodd" clip-rule="evenodd" d="M11.7677 9.36092H14.0742C14.424 9.36092 14.6988 9.07178 14.6988 8.7231C14.6988 8.36593 14.424 8.08529 14.0742 8.08529H11.7677C11.418 8.08529 11.1432 8.36593 11.1432 8.7231C11.1432 9.07178 11.418 9.36092 11.7677 9.36092ZM16.8138 4.93957C17.3217 4.93957 17.6548 5.11816 17.9879 5.50935C18.3209 5.90055 18.3792 6.46183 18.3043 6.97123L17.5132 12.55C17.3633 13.6224 16.464 14.4124 15.4065 14.4124H6.32195C5.21448 14.4124 4.29853 13.5459 4.20693 12.4233L3.44086 3.15283L2.18351 2.93172C1.85043 2.87219 1.61728 2.54052 1.67557 2.20035C1.73386 1.85253 2.05861 1.62206 2.40001 1.67394L4.38596 1.97924C4.66907 2.03112 4.87724 2.26838 4.90222 2.55753L5.06043 4.46248C5.08541 4.73547 5.30191 4.93957 5.56837 4.93957H16.8138ZM6.18855 15.7565C5.4891 15.7565 4.92287 16.3348 4.92287 17.0492C4.92287 17.755 5.4891 18.3333 6.18855 18.3333C6.87968 18.3333 7.44591 17.755 7.44591 17.0492C7.44591 16.3348 6.87968 15.7565 6.18855 15.7565ZM15.5563 15.7565C14.8568 15.7565 14.2906 16.3348 14.2906 17.0492C14.2906 17.755 14.8568 18.3333 15.5563 18.3333C16.2474 18.3333 16.8136 17.755 16.8136 17.0492C16.8136 16.3348 16.2474 15.7565 15.5563 15.7565Z" fill="#C8C8C8"/>
</svg>
