<svg width="24" height="24" viewBox="0 0 24 24" fill="none" xmlns="http://www.w3.org/2000/svg">
<path d="M15.7072 16.707L19.7072 12.707C19.7074 12.7069 19.7075 12.7067 19.7077 12.7065C19.7308 12.6834 19.7527 12.6591 19.7734 12.6338C19.7829 12.6222 19.7912 12.61 19.8001 12.5981C19.8107 12.5839 19.8218 12.57 19.8316 12.5552C19.8412 12.5409 19.8494 12.5262 19.8581 12.5115C19.8661 12.4981 19.8745 12.485 19.8819 12.4713C19.8899 12.4564 19.8967 12.4411 19.9038 12.4258C19.9106 12.4114 19.9178 12.3973 19.9239 12.3826C19.93 12.3678 19.935 12.3527 19.9404 12.3377C19.946 12.3219 19.9521 12.3064 19.9569 12.2902C19.9615 12.2752 19.9648 12.2599 19.9686 12.2448C19.9728 12.2284 19.9774 12.2121 19.9807 12.1954C19.9842 12.1778 19.9863 12.1601 19.9888 12.1424C19.9909 12.1278 19.9937 12.1135 19.9951 12.0987C20.0016 12.033 20.0016 11.9669 19.9951 11.9013C19.9937 11.8865 19.9909 11.8722 19.9888 11.8575C19.9863 11.8399 19.9842 11.8221 19.9807 11.8046C19.9774 11.7878 19.9728 11.7716 19.9686 11.7551C19.9648 11.7399 19.9615 11.7247 19.9569 11.7097C19.9521 11.6936 19.946 11.6779 19.9404 11.6622C19.935 11.6472 19.93 11.6321 19.9239 11.6173C19.9179 11.6026 19.9106 11.5885 19.9038 11.5741C19.8967 11.5589 19.8899 11.5436 19.8819 11.5287C19.8745 11.5149 19.8661 11.5018 19.8581 11.4884C19.8494 11.4738 19.8412 11.459 19.8316 11.4447C19.8218 11.4299 19.8107 11.4161 19.8001 11.4018C19.7912 11.3899 19.7829 11.3777 19.7734 11.3661C19.7527 11.3408 19.7308 11.3165 19.7077 11.2934C19.7075 11.2932 19.7074 11.293 19.7072 11.2929L15.7072 7.29289C15.3167 6.90237 14.6835 6.90237 14.293 7.29289C13.9025 7.6834 13.9025 8.31659 14.293 8.70711L16.5859 11L5.00007 11C4.44779 11 4.00009 11.4477 4.00009 12C4.00009 12.5523 4.44779 13 5.00007 13L16.5858 13L14.2929 15.2929C13.9024 15.6834 13.9024 16.3166 14.2929 16.7071C14.6835 17.0975 15.3166 17.0975 15.7072 16.707Z" fill="#5F6774"/>
</svg>
