<svg width="21" height="20" viewBox="0 0 21 20" fill="none" xmlns="http://www.w3.org/2000/svg">
<path d="M7 5.83344V6.66677H5.6875C4.96262 6.66677 4.375 7.22641 4.375 7.91677V15.4167C4.375 16.1072 4.96262 16.6667 5.6875 16.6667H11.8125C12.5374 16.6667 13.125 16.1072 13.125 15.4167V14.1667H14V15.4167C14 16.5673 13.0206 17.5001 11.8125 17.5001H5.6875C4.47938 17.5001 3.5 16.5673 3.5 15.4167V7.91677C3.5 6.76617 4.47938 5.83344 5.6875 5.83344H7ZM14 3.33344H9.1875C8.46262 3.33344 7.875 3.89308 7.875 4.58344V12.0834C7.875 12.7738 8.46262 13.3334 9.1875 13.3334H15.3125C16.0374 13.3334 16.625 12.7738 16.625 12.0834V5.83344H14.4375C14.1959 5.83344 14 5.64689 14 5.41677V3.33344ZM17.5 5.44008V12.0834C17.5 13.234 16.5206 14.1667 15.3125 14.1667H9.1875C7.97938 14.1667 7 13.234 7 12.0834V4.58344C7 3.43284 7.97938 2.5001 9.1875 2.5001H14.413C14.5292 2.49309 14.65 2.52997 14.7469 2.62214L17.3719 5.12214C17.4687 5.21431 17.5074 5.32946 17.5 5.44008ZM14.875 5.0001H16.0063L14.875 3.92269V5.0001ZM10.0625 10.8334C9.82091 10.8334 9.625 10.6469 9.625 10.4167C9.625 10.1867 9.82091 10.0001 10.0625 10.0001H11.8125C12.0541 10.0001 12.25 10.1867 12.25 10.4167C12.25 10.6469 12.0541 10.8334 11.8125 10.8334H10.0625ZM10.0625 9.16674C9.82091 9.16674 9.625 8.98024 9.625 8.75008C9.625 8.51999 9.82091 8.33341 10.0625 8.33341H14.4375C14.6791 8.33341 14.875 8.51999 14.875 8.75008C14.875 8.98024 14.6791 9.16674 14.4375 9.16674H10.0625ZM10.0625 7.5001C9.82091 7.5001 9.625 7.31355 9.625 7.08344C9.625 6.85331 9.82091 6.66677 10.0625 6.66677H14.4375C14.6791 6.66677 14.875 6.85331 14.875 7.08344C14.875 7.31355 14.6791 7.5001 14.4375 7.5001H10.0625Z" fill="#666666"/>
</svg>
