<svg width="24" height="25" viewBox="0 0 24 25" fill="none" xmlns="http://www.w3.org/2000/svg">
<path d="M11 20H16.7C16.4042 20.7391 15.8935 21.3725 15.2339 21.8181C14.5742 22.2638 13.7961 22.5014 13 22.5H5.99998C5.47466 22.5001 4.95445 22.3968 4.46908 22.1958C3.98371 21.9948 3.5427 21.7002 3.17124 21.3287C2.79978 20.9573 2.50515 20.5163 2.30418 20.0309C2.10321 19.5455 1.99985 19.0253 2 18.5V10.5C2.00118 9.5259 2.35714 8.58561 3.00131 7.85495C3.64547 7.12429 4.53373 6.65329 5.49997 6.53003V14.5C5.49997 17.53 7.96995 20 11 20ZM19.5 6.74997H21.62C21.5585 6.65984 21.4881 6.5761 21.41 6.49998L18 3.08983C17.9263 3.01198 17.8422 2.94477 17.75 2.89014V4.99998C17.7522 5.46343 17.9373 5.90726 18.265 6.23497C18.5927 6.56268 19.0365 6.74776 19.5 6.74997ZM19.5 8.24997C18.6385 8.24831 17.8129 7.90537 17.2037 7.29624C16.5946 6.68711 16.2517 5.86142 16.25 4.99998V2.5H11C10.4747 2.49985 9.95446 2.60321 9.46909 2.80418C8.98372 3.00514 8.5427 3.29977 8.17124 3.67124C7.79977 4.0427 7.50514 4.48371 7.30417 4.96908C7.10319 5.45445 6.99983 5.97466 6.99997 6.49998V14.5C6.99983 15.0253 7.10321 15.5455 7.30418 16.0309C7.50515 16.5163 7.79979 16.9573 8.17125 17.3287C8.54272 17.7002 8.98373 17.9948 9.4691 18.1958C9.95446 18.3968 10.4747 18.5001 11 18.5H18C18.5253 18.5001 19.0455 18.3968 19.5309 18.1958C20.0162 17.9948 20.4573 17.7002 20.8287 17.3287C21.2002 16.9573 21.4948 16.5163 21.6958 16.0309C21.8967 15.5455 22.0001 15.0253 22 14.5V8.24997H19.5Z" fill="white"/>
</svg>
