<svg width="32" height="24" viewBox="0 0 32 24" fill="none" xmlns="http://www.w3.org/2000/svg">
<path d="M28.8634 5.74083C28.2301 4.21632 27.2117 2.84272 25.7585 2.0595C24.1224 1.17775 22.3253 0.700607 20.4589 0.5796C20.374 0.574097 20.2913 0.607167 20.2328 0.66895C20.0807 0.829715 20.1581 1.09567 20.3709 1.1564C20.5419 1.20519 20.7114 1.25698 20.8796 1.31173C21.5733 1.53751 21.1389 2.39701 20.4244 2.24991C19.7754 2.11631 19.1169 2.01337 18.4508 1.94296C17.5858 1.79058 16.8649 1.79058 15.9999 1.79058C15.1349 1.79058 14.4141 1.79058 13.5491 1.94296C12.8829 2.01337 12.2245 2.11631 11.5755 2.24991C10.861 2.39701 10.4265 1.53751 11.1202 1.31173C11.2884 1.25698 11.458 1.20519 11.6289 1.1564C11.8418 1.09567 11.9192 0.829715 11.7671 0.66895C11.7086 0.607167 11.6258 0.574097 11.541 0.5796C9.67452 0.700606 7.87744 1.17775 6.24141 2.05949C4.78819 2.84272 3.76979 4.21632 3.13642 5.74083C1.90025 8.71628 1.06421 11.879 0.6283 15.1355C0.257712 17.904 1.20918 20.8396 3.67463 22.1524C5.00091 22.8587 6.44862 23.2974 7.94085 23.4035C8.38754 23.4353 8.81274 23.2298 9.09055 22.8785C9.23024 22.7019 9.39321 22.493 9.56471 22.2674C9.97159 21.732 9.68085 20.9702 9.0611 20.7094C8.75007 20.5785 8.44661 20.429 8.15301 20.2609C7.45548 19.8616 7.91521 19.2875 8.64738 19.6192C9.94489 20.2287 11.2424 20.5334 12.5399 20.8382C13.6932 20.9906 14.8466 21.143 15.9999 21.143C17.1533 21.143 18.3066 20.9906 19.46 20.8382C20.7575 20.5334 22.055 20.2287 23.3525 19.6192C24.0847 19.2875 24.5444 19.8616 23.8468 20.2609C23.5533 20.429 23.2498 20.5785 22.9388 20.7094C22.319 20.9702 22.0283 21.732 22.4352 22.2674C22.6067 22.493 22.7696 22.7019 22.9093 22.8785C23.1871 23.2298 23.6123 23.4353 24.059 23.4035C25.5512 23.2974 26.9989 22.8587 28.3252 22.1524C30.7907 20.8396 31.7421 17.904 31.3716 15.1355C30.9356 11.879 30.0996 8.71628 28.8634 5.74083ZM11.2424 16.7239C9.80072 16.7239 8.50321 15.3525 8.50321 13.6763C8.50321 12.0001 9.80072 10.6287 11.2424 10.6287C12.6841 10.6287 13.9816 12.0001 13.9816 13.6763C13.9816 15.3525 12.6841 16.7239 11.2424 16.7239ZM20.7575 16.7239C19.3158 16.7239 18.0183 15.3525 18.0183 13.6763C18.0183 12.0001 19.3158 10.6287 20.7575 10.6287C22.1991 10.6287 23.4967 12.0001 23.4967 13.6763C23.4967 15.3525 22.1991 16.7239 20.7575 16.7239Z" fill="url(#paint0_linear_2788_8408)"/>
<defs>
<linearGradient id="paint0_linear_2788_8408" x1="15.9999" y1="0.571533" x2="15.9999" y2="23.4287" gradientUnits="userSpaceOnUse">
<stop stop-color="#687EC9"/>
<stop offset="1" stop-color="#5971C3"/>
</linearGradient>
</defs>
</svg>
