<svg width="16" height="16" viewBox="0 0 16 16" fill="none" xmlns="http://www.w3.org/2000/svg">
<path d="M10.1953 9.52841L8.66672 11.057V3.33316C8.66672 2.96497 8.36826 2.6665 8.00007 2.6665C7.63188 2.6665 7.33341 2.96497 7.33341 3.33316V11.057L5.80482 9.52841C5.54447 9.26807 5.12235 9.26807 4.86201 9.52841C4.60166 9.78875 4.60166 10.2109 4.86201 10.4712L7.52866 13.1379C7.52879 13.138 7.52891 13.1381 7.52904 13.1382C7.54444 13.1536 7.56066 13.1682 7.57751 13.182C7.58522 13.1884 7.59338 13.1939 7.60132 13.1998C7.61079 13.2069 7.62007 13.2143 7.62991 13.2209C7.63941 13.2272 7.64926 13.2327 7.65901 13.2385C7.66794 13.2439 7.67666 13.2495 7.68585 13.2544C7.69579 13.2597 7.70601 13.2642 7.71616 13.269C7.72572 13.2735 7.73516 13.2783 7.74497 13.2823C7.75482 13.2864 7.76488 13.2897 7.77488 13.2933C7.78541 13.2971 7.79579 13.3011 7.80654 13.3043C7.81654 13.3074 7.82669 13.3096 7.83682 13.3121C7.84779 13.3149 7.85863 13.318 7.86982 13.3202C7.88154 13.3225 7.89335 13.3239 7.90513 13.3256C7.91485 13.3269 7.92444 13.3288 7.93429 13.3298C7.97804 13.3341 8.02213 13.3341 8.06588 13.3298C8.07572 13.3288 8.08529 13.327 8.09504 13.3256C8.10682 13.3239 8.11866 13.3225 8.13035 13.3202C8.14154 13.3179 8.15235 13.3149 8.16332 13.3121C8.17344 13.3096 8.1836 13.3073 8.1936 13.3043C8.20435 13.3011 8.21476 13.297 8.22526 13.2933C8.23526 13.2897 8.24532 13.2864 8.25516 13.2823C8.26497 13.2783 8.27438 13.2735 8.28394 13.2689C8.2941 13.2642 8.30435 13.2597 8.31429 13.2543C8.32344 13.2494 8.33216 13.2438 8.34107 13.2385C8.35082 13.2327 8.36069 13.2272 8.37019 13.2208C8.38004 13.2142 8.38929 13.2069 8.39872 13.1998C8.40669 13.1939 8.41485 13.1883 8.4226 13.182C8.43932 13.1683 8.45541 13.1538 8.47072 13.1385C8.47097 13.1383 8.47122 13.1381 8.47144 13.1378L11.1381 10.4712C11.3984 10.2108 11.3984 9.78872 11.1381 9.52838C10.8778 9.26804 10.4557 9.26807 10.1953 9.52841Z" fill="#464E5F"/>
</svg>
