<svg width="28" height="28" viewBox="0 0 28 28" fill="none" xmlns="http://www.w3.org/2000/svg">
<mask id="path-1-outside-1_1296_39429" maskUnits="userSpaceOnUse" x="1.3335" y="1.33331" width="26" height="26" fill="black">
<rect fill="white" x="1.3335" y="1.33331" width="26" height="26"/>
<path d="M19.4419 25.6546H8.55752C6.86991 25.7595 5.2126 25.1745 3.96555 24.0346C2.82571 22.7864 2.24064 21.1291 2.34554 19.4427V8.55727C2.24064 6.87085 2.82455 5.21356 3.96438 3.96535C5.2126 2.82552 6.86991 2.24046 8.55752 2.34535H19.4419C21.1272 2.24046 22.7833 2.82436 24.0304 3.96418C25.169 5.21356 25.7553 6.86968 25.655 8.55727V19.4427C25.7588 21.1291 25.1749 22.7864 24.035 24.0346C22.7868 25.1745 21.1295 25.7595 19.4419 25.6546Z"/>
</mask>
<path d="M19.4419 25.6546H8.55752C6.86991 25.7595 5.2126 25.1745 3.96555 24.0346C2.82571 22.7864 2.24064 21.1291 2.34554 19.4427V8.55727C2.24064 6.87085 2.82455 5.21356 3.96438 3.96535C5.2126 2.82552 6.86991 2.24046 8.55752 2.34535H19.4419C21.1272 2.24046 22.7833 2.82436 24.0304 3.96418C25.169 5.21356 25.7553 6.86968 25.655 8.55727V19.4427C25.7588 21.1291 25.1749 22.7864 24.035 24.0346C22.7868 25.1745 21.1295 25.7595 19.4419 25.6546Z" fill="#F7F9FA"/>
<path d="M8.55752 25.6546V24.6546H8.52647L8.49548 24.6566L8.55752 25.6546ZM3.96555 24.0346L3.22711 24.709L3.25756 24.7423L3.29089 24.7728L3.96555 24.0346ZM2.34554 19.4427L3.34361 19.5048L3.34554 19.4738V19.4427H2.34554ZM2.34554 8.55727H3.34554V8.5262L3.34361 8.4952L2.34554 8.55727ZM3.96438 3.96535L3.29007 3.2269L3.25655 3.25751L3.22594 3.29102L3.96438 3.96535ZM8.55752 2.34535L8.49548 3.34343L8.52647 3.34535H8.55752V2.34535ZM19.4419 2.34535V3.34535H19.473L19.504 3.34342L19.4419 2.34535ZM24.0304 3.96418L24.7695 3.29058L24.7387 3.25684L24.705 3.22605L24.0304 3.96418ZM25.655 8.55727L24.6568 8.49799L24.655 8.5276V8.55727H25.655ZM25.655 19.4427H24.655V19.4734L24.6569 19.5041L25.655 19.4427ZM24.035 24.0346L24.7093 24.7731L24.7429 24.7425L24.7735 24.709L24.035 24.0346ZM19.4419 24.6546H8.55752V26.6546H19.4419V24.6546ZM8.49548 24.6566C7.07852 24.7446 5.6871 24.2534 4.6402 23.2965L3.29089 24.7728C4.73811 26.0955 6.6613 26.7744 8.61955 26.6527L8.49548 24.6566ZM4.70398 23.3603C3.74666 22.312 3.25556 20.9203 3.34361 19.5048L1.34746 19.3806C1.22572 21.3379 1.90476 23.2609 3.22711 24.709L4.70398 23.3603ZM3.34554 19.4427V8.55727H1.34554V19.4427H3.34554ZM3.34361 8.4952C3.25553 7.07916 3.74582 5.68766 4.70282 4.63967L3.22594 3.29102C1.90327 4.73946 1.22575 6.66253 1.34746 8.61935L3.34361 8.4952ZM4.6387 4.70379C5.68698 3.74655 7.07861 3.25536 8.49548 3.34343L8.61955 1.34728C6.6612 1.22556 4.73823 1.9045 3.29007 3.2269L4.6387 4.70379ZM8.55752 3.34535H19.4419V1.34535H8.55752V3.34535ZM19.504 3.34342C20.9187 3.25537 22.3089 3.74551 23.3557 4.70231L24.705 3.22605C23.2577 1.9032 21.3356 1.22555 19.3798 1.34728L19.504 3.34342ZM23.2913 4.63778C24.2484 5.68799 24.741 7.07989 24.6568 8.49799L26.6533 8.61656C26.7695 6.65947 26.0896 4.73912 24.7695 3.29058L23.2913 4.63778ZM24.655 8.55727V19.4427H26.655V8.55727H24.655ZM24.6569 19.5041C24.744 20.9206 24.2536 22.3123 23.2966 23.3603L24.7735 24.709C26.0961 23.2605 26.7735 21.3377 26.6532 19.3813L24.6569 19.5041ZM23.3607 23.2962C22.3124 24.2534 20.9208 24.7446 19.5039 24.6566L19.3799 26.6527C21.3382 26.7744 23.2612 26.0955 24.7093 24.7731L23.3607 23.2962Z" fill="white" mask="url(#path-1-outside-1_1296_39429)"/>
<path d="M19.8971 12.1305L12.2522 19.8134C11.8546 20.2004 11.3321 20.4166 10.7869 20.4166H8.11739C7.96972 20.4166 7.8334 20.3597 7.73117 20.2573C7.62893 20.1549 7.5835 20.0183 7.5835 19.8703L7.65165 17.1727C7.66301 16.6378 7.87884 16.137 8.2537 15.7614L13.6722 10.3321C13.763 10.241 13.9221 10.241 14.0129 10.3321L15.9134 12.2249C16.0383 12.349 16.2201 12.4298 16.4132 12.4298C16.8335 12.4298 17.1629 12.0884 17.1629 11.6786C17.1629 11.4737 17.0834 11.2916 16.9584 11.155C16.9244 11.1095 15.1148 9.3077 15.1148 9.3077C15.0012 9.19388 15.0012 9.00039 15.1148 8.88656L15.8759 8.11258C16.5802 7.40689 17.7161 7.40689 18.4204 8.11258L19.8971 9.59226C20.5901 10.2866 20.5901 11.4248 19.8971 12.1305Z" fill="#383C4A"/>
</svg>
