<svg width="20" height="20" viewBox="0 0 20 20" fill="none" xmlns="http://www.w3.org/2000/svg">
<path d="M17.2708 9.09193L10.9089 2.73008C10.4072 2.22832 9.59339 2.22832 9.09162 2.73008C8.58986 3.23185 8.58986 4.04563 9.09162 4.5474L14.5442 9.99995L9.09162 15.4525C8.58986 15.9542 8.58986 16.768 9.09162 17.2698C9.59339 17.7716 10.4072 17.7716 10.9089 17.2698L17.2708 10.908C17.7725 10.4075 17.7725 9.59369 17.2708 9.09193ZM9.6214 8.70669L4.57066 3.38341C4.06315 2.84918 3.24111 2.84918 2.7336 3.38341C2.22609 3.91764 2.22609 4.78428 2.7336 5.31915L6.86615 9.67456L2.7336 14.03C2.22609 14.5642 2.22609 15.4315 2.7336 15.9657C3.24111 16.5 4.06315 16.5 4.57066 15.9657L9.6214 10.6424C10.1289 10.1082 10.1289 9.24157 9.6214 8.70669Z" fill="#C8C8C8"/>
</svg>
