<svg width="25" height="24" viewBox="0 0 25 24" fill="none" xmlns="http://www.w3.org/2000/svg">
<path fill-rule="evenodd" clip-rule="evenodd" d="M4.62819 2H20.3718C21.5476 2 22.5 2.98105 22.5 4.19225V5.72376C22.5 6.31133 22.2704 6.87557 21.8627 7.28708L15.3577 13.867C15.2454 13.9816 15.0931 14.0452 14.9355 14.0441L9.48893 14.0272C9.32317 14.0272 9.16564 13.9561 9.05238 13.832L3.07452 7.25738C2.70489 6.85117 2.5 6.31451 2.5 5.7577V4.19332C2.5 2.98211 3.45238 2 4.62819 2ZM9.7801 15.8241L14.6347 15.839C14.9374 15.8401 15.1824 16.0935 15.1824 16.4043V19.1353C15.1824 19.4471 15.0053 19.7293 14.7294 19.8597L10.3227 21.9289C10.2197 21.9767 10.1106 22 10.0015 22C9.85629 22 9.71112 21.9576 9.58448 21.8738C9.36311 21.7274 9.22927 21.475 9.22927 21.2046V16.3894C9.22927 16.0766 9.47637 15.8231 9.7801 15.8241Z" fill="#383C4A"/>
</svg>
