<svg width="30" height="30" viewBox="0 0 30 30" fill="none" xmlns="http://www.w3.org/2000/svg">
<path d="M21.6964 22.5335C22.1587 22.5335 22.5335 22.1587 22.5335 21.6964C22.5335 21.2341 22.1587 20.8594 21.6964 20.8594C21.2341 20.8594 20.8594 21.2341 20.8594 21.6964C20.8594 22.1587 21.2341 22.5335 21.6964 22.5335Z" fill="#1D47A1"/>
<path d="M8.30385 9.14066C8.76614 9.14066 9.1409 8.7659 9.1409 8.30361C9.1409 7.84131 8.76614 7.46655 8.30385 7.46655C7.84156 7.46655 7.4668 7.84131 7.4668 8.30361C7.4668 8.7659 7.84156 9.14066 8.30385 9.14066Z" fill="#1D47A1"/>
<path d="M10.4957 1.43652C9.53809 2.61286 8.77246 4.13351 8.18373 5.79534C6.89188 5.85617 5.85226 6.8969 5.79422 8.18931C4.32938 8.74679 2.70271 9.51409 1.41309 10.5649C2.8132 6.25963 6.19936 2.85784 10.4957 1.43652Z" fill="#1D47A1"/>
<path d="M10.4934 28.5625C6.19929 27.1406 2.81424 23.7399 1.41357 19.4358C3.29025 20.967 5.87898 21.8984 7.63902 22.4503C8.26849 24.7784 9.2071 26.9815 10.4934 28.5625Z" fill="#1D47A1"/>
<path d="M28.5867 10.5663C28.5711 10.5535 28.5555 10.5401 28.5398 10.5273C26.6124 8.93297 24.1671 8.11098 22.3635 7.56076C21.734 5.22872 20.7943 3.02114 19.5063 1.43799C23.801 2.85986 27.1866 6.26109 28.5867 10.5663Z" fill="#1D47A1"/>
<path d="M28.5861 19.4333C27.186 23.7392 23.7998 27.1415 19.5029 28.5634C20.46 27.387 21.2261 25.8664 21.8149 24.2046C23.1 24.1443 24.1363 23.113 24.2038 21.8296C25.6441 21.2994 27.2172 20.5667 28.5398 19.4724C28.5554 19.4596 28.571 19.4467 28.5861 19.4333Z" fill="#1D47A1"/>
<path d="M20.5302 7.15911C18.7456 6.81145 16.8516 6.62953 15.0006 6.62953C13.4817 6.62953 11.9342 6.75174 10.442 6.98835C10.2696 6.70822 10.043 6.4638 9.77686 6.27128C11.0029 2.96324 12.8873 0.714355 15.0006 0.714355C17.2981 0.714355 19.3248 3.37228 20.5302 7.15911Z" fill="#1D47A1"/>
<path d="M20.2236 23.7289C18.9976 27.0369 17.1131 29.2858 14.9998 29.2858C12.7024 29.2858 10.6756 26.6279 9.47021 22.8411C11.2548 23.1887 13.1488 23.3706 14.9998 23.3706C16.5188 23.3706 18.0662 23.2484 19.5584 23.0118C19.7308 23.292 19.9574 23.5364 20.2236 23.7289Z" fill="#1D47A1"/>
<path d="M7.19482 20.5423C3.38958 19.3375 0.714355 17.3051 0.714355 15.0005C0.714355 12.8877 2.96324 11.0032 6.27128 9.77612C6.46994 10.0507 6.72328 10.2834 7.01458 10.458C6.75398 12.0585 6.62953 13.6243 6.62953 15.0005C6.62953 16.6545 6.8109 18.5948 7.19482 20.5423Z" fill="#1D47A1"/>
<path d="M29.2856 15.0003C29.2856 17.1131 27.0368 18.9976 23.7287 20.2247C23.5301 19.9501 23.2767 19.7174 22.9854 19.5428C23.246 17.9423 23.3705 16.3765 23.3705 15.0003C23.3705 13.3463 23.1891 11.406 22.8052 9.4585C26.6104 10.6633 29.2856 12.6957 29.2856 15.0003Z" fill="#1D47A1"/>
<path d="M21.6966 15.0001C21.6966 16.4365 21.5833 17.8545 21.3735 19.2061C20.2468 19.3517 19.3517 20.2468 19.2061 21.3735C17.8545 21.5833 16.4365 21.6966 15.0001 21.6966C12.9025 21.6966 10.8456 21.4549 8.97503 21.0253C8.54534 19.1547 8.30371 17.0978 8.30371 15.0001C8.30371 13.5638 8.41699 12.1458 8.62681 10.7942C9.75349 10.6486 10.6486 9.75349 10.7942 8.62681C12.1458 8.41699 13.5638 8.30371 15.0001 8.30371C17.0978 8.30371 19.1547 8.54534 21.0253 8.97503C21.4549 10.8456 21.6966 12.9025 21.6966 15.0001Z" fill="#1D47A1"/>
</svg>
