<svg width="30" height="30" viewBox="0 0 30 30" fill="none" xmlns="http://www.w3.org/2000/svg">
<path d="M15 30C23.2843 30 30 23.2843 30 15C30 6.71573 23.2843 0 15 0C6.71573 0 0 6.71573 0 15C0 23.2843 6.71573 30 15 30Z" fill="#00052E"/>
<path d="M12.314 13.997L21.8468 8.55115V4.44287L12.314 9.88873V13.997Z" fill="#E1AE00"/>
<path d="M8.07703 22.5956L20.0653 15.6688V11.5605L8.07703 18.4395V22.5956Z" fill="#E1AE00"/>
<path d="M12.314 25.5571L12.5065 16.0507L16.1656 13.9966L15.9249 23.5507" fill="#E1AE00"/>
<path d="M16.0205 19.4424L16.0686 18.0093L12.5059 20.0156L16.0205 19.4424Z" fill="#E1AE00"/>
</svg>
