<svg width="72" height="60" viewBox="0 0 72 60" fill="none" xmlns="http://www.w3.org/2000/svg">
<path d="M36.4174 43.4083C48.4042 43.4083 58.1215 33.691 58.1215 21.7041C58.1215 9.71727 48.4042 0 36.4174 0C24.4305 0 14.7133 9.71727 14.7133 21.7041C14.7133 33.691 24.4305 43.4083 36.4174 43.4083Z" fill="#00052E"/>
<path d="M32.5308 20.2525L46.3243 12.3727V6.42822L32.5308 14.3081V20.2525Z" fill="#E1AE00"/>
<path d="M26.4001 32.6941L43.7465 22.6715V16.7271L26.4001 26.6805V32.6941Z" fill="#E1AE00"/>
<path d="M32.5308 36.9796L32.8094 23.2244L38.1039 20.2522L37.7556 34.0765" fill="#E1AE00"/>
<path d="M37.8941 28.1322L37.9638 26.0586L32.8086 28.9617L37.8941 28.1322Z" fill="#E1AE00"/>
<path d="M0.522095 59.8258V52.2859H4.84492V53.3755H1.61372V55.5111H4.32094V56.6006H1.61372V59.8258H0.522095Z" fill="#00052E"/>
<path d="M10.5213 58.213H7.11544L6.37314 59.8256H5.19418L8.81838 52.1113L12.3989 59.8256H11.22L10.5213 58.213ZM10.041 57.1234L8.81838 54.5084L7.63943 57.1234H10.041Z" fill="#00052E"/>
<path d="M14.6691 56.3389V59.8256H13.4028L13.4464 52.1113L17.158 57.8208L20.8695 52.1985L20.8258 59.8256H19.6032L19.6469 56.2953L17.2016 59.9999L14.6691 56.3389Z" fill="#00052E"/>
<path d="M30.3888 58.0389L31.0438 58.867L30.8255 59.0849C30.2142 59.6515 29.2972 59.9566 28.4676 59.9566C26.2843 59.9566 24.5377 58.2132 24.5377 56.0777C24.5377 53.9421 26.2843 52.1987 28.4676 52.1987C29.2972 52.1987 30.2142 52.5038 30.8255 53.0704L31.1312 53.3319L30.3452 54.0728C29.8212 53.5498 29.2536 53.2447 28.3802 53.2447C26.852 53.2447 25.5857 54.5087 25.5857 56.0341C25.5857 57.5595 26.852 58.8234 28.3802 58.8234C29.2536 58.867 29.8649 58.5619 30.3888 58.0389Z" fill="#00052E"/>
<path d="M33.2709 53.3755V55.5111H36.4584V56.6006H33.2709V58.7362H36.3711L36.9824 59.8258H32.1792V52.2859H36.9824V53.3755H33.2709Z" fill="#00052E"/>
<path d="M39.5586 55.3365V59.8256H38.2487V52.1113L42.9645 56.9927V52.2857H44.1871V59.9999L39.5586 55.3365Z" fill="#00052E"/>
<path d="M51.6096 52.2859V53.3755H48.9897V59.8258H47.8981V53.3755H45.2345V52.2859H51.6096Z" fill="#00052E"/>
<path d="M56.9369 59.8258L55.0593 57.2108H53.8804V59.8258H52.7887V52.2859H55.1466C57.1116 52.2859 58.0285 53.2883 58.0285 54.683C58.0285 55.8597 57.3736 56.8186 56.2819 57.1236L58.2469 59.8258H56.9369ZM53.8804 56.1648H55.496C56.2819 56.1648 56.9369 55.7726 56.9369 54.7701C56.9369 53.7677 56.2819 53.3755 55.496 53.3755H53.8804V56.1648Z" fill="#00052E"/>
<path d="M63.923 58.5181H60.7792L60.2115 59.8256H58.7706L62.3511 52.1113L65.9316 59.8256H64.4907L63.923 58.5181ZM63.661 57.4285L62.3074 54.4648L60.9538 57.4285H63.661Z" fill="#00052E"/>
<path d="M70.7356 58.7798L71.4779 59.8694H66.8931V52.2859H67.9847V58.7362H70.7356V58.7798Z" fill="#00052E"/>
</svg>
