<svg width="32" height="32" viewBox="0 0 32 32" fill="none" xmlns="http://www.w3.org/2000/svg">
<path fill-rule="evenodd" clip-rule="evenodd" d="M26.9024 7.90328C27.7151 7.90328 28.248 8.18903 28.781 8.81494C29.3139 9.44085 29.4071 10.3389 29.2872 11.1539L28.0216 20.08C27.7817 21.7958 26.3429 23.0599 24.6508 23.0599H10.1155C8.34356 23.0599 6.87803 21.6734 6.73148 19.8773L5.50577 5.0445L3.494 4.69072C2.96109 4.59547 2.58804 4.06481 2.6813 3.52054C2.77456 2.96402 3.29416 2.59528 3.8404 2.67828L7.01792 3.16676C7.4709 3.24976 7.80398 3.62939 7.84395 4.09202L8.09708 7.13994C8.13705 7.57672 8.48345 7.90328 8.90978 7.90328H26.9024ZM9.90208 25.2104C8.78295 25.2104 7.87699 26.1357 7.87699 27.2787C7.87699 28.408 8.78295 29.3333 9.90208 29.3333C11.0079 29.3333 11.9138 28.408 11.9138 27.2787C11.9138 26.1357 11.0079 25.2104 9.90208 25.2104ZM24.8904 25.2104C23.7713 25.2104 22.8653 26.1357 22.8653 27.2787C22.8653 28.408 23.7713 29.3333 24.8904 29.3333C25.9962 29.3333 26.9022 28.408 26.9022 27.2787C26.9022 26.1357 25.9962 25.2104 24.8904 25.2104Z" fill="#383C4A"/>
<path d="M22 1.33331C18.6888 1.33331 16 4.02211 16 7.33331C16 10.6445 18.6888 13.3333 22 13.3333C25.3112 13.3333 28 10.6445 28 7.33331C28 4.02211 25.3112 1.33331 22 1.33331Z" fill="#383C4A"/>
<path d="M22 1.33331C18.6888 1.33331 16 4.02211 16 7.33331C16 10.6445 18.6888 13.3333 22 13.3333C25.3112 13.3333 28 10.6445 28 7.33331C28 4.02211 25.3112 1.33331 22 1.33331" stroke="white" stroke-width="1.5"/>
<path fill-rule="evenodd" clip-rule="evenodd" d="M23.8528 8.31055H20.1623C19.6027 8.31055 19.1631 7.84792 19.1631 7.29004C19.1631 6.71856 19.6027 6.26953 20.1623 6.26953H23.8528C24.4123 6.26953 24.852 6.71856 24.852 7.29004C24.852 7.84792 24.4123 8.31055 23.8528 8.31055Z" fill="white"/>
</svg>
