<svg width="28" height="28" viewBox="0 0 28 28" fill="none" xmlns="http://www.w3.org/2000/svg">
<path d="M0 14C0 6.26801 6.26801 0 14 0C21.732 0 28 6.26801 28 14C28 21.732 21.732 28 14 28C6.26801 28 0 21.732 0 14Z" fill="white"/>
<path fill-rule="evenodd" clip-rule="evenodd" d="M18.0331 6H10.7438C8.20364 6 6.61108 7.90436 6.61108 10.5993V17.8713C6.61108 20.5662 8.19607 22.4706 10.7438 22.4706H18.0322C20.5808 22.4706 22.1666 20.5662 22.1666 17.8713V10.5993C22.1666 7.90436 20.5808 6 18.0331 6Z" stroke="#448AFF" stroke-width="1.5" stroke-linecap="round" stroke-linejoin="round"/>
<path d="M14.3843 17.7966V14.2354" stroke="#448AFF" stroke-width="1.5" stroke-linecap="round" stroke-linejoin="round"/>
<path d="M14.3801 10.8563H14.3885" stroke="#448AFF" stroke-width="2" stroke-linecap="round" stroke-linejoin="round"/>
</svg>
