<svg width="402" height="248" viewBox="0 0 402 248" fill="none" xmlns="http://www.w3.org/2000/svg">
<path fill-rule="evenodd" clip-rule="evenodd" d="M314.902 246C336.807 219.926 350 186.29 350 149.571C350 66.7286 282.843 -0.428711 200 -0.428711C117.157 -0.428711 50 66.7286 50 149.571C50 186.29 63.1931 219.926 85.0976 246H314.902Z" fill="#F0F3FD"/>
<g opacity="0.15">
<path fill-rule="evenodd" clip-rule="evenodd" d="M259.579 107.909C259.415 108.104 259.309 108.34 259.272 108.592L254.451 141.407C254.36 142.022 254.695 142.62 255.266 142.865L259.579 144.713C259.646 144.742 259.713 144.765 259.78 144.782C259.963 144.829 260.119 144.979 260.119 145.168V155.291C260.119 155.669 260.425 155.976 260.804 155.976C261.182 155.976 261.488 155.669 261.488 155.291V143.464C261.488 143.461 261.488 143.457 261.488 143.454L261.488 106.578C261.488 106.258 261.09 106.113 260.884 106.357L259.579 107.909Z" fill="#A4A4A4"/>
<path fill-rule="evenodd" clip-rule="evenodd" d="M259.579 107.224C259.415 107.419 259.309 107.655 259.272 107.907L254.451 140.722C254.36 141.337 254.695 141.935 255.266 142.18L259.579 144.028C259.646 144.057 259.713 144.08 259.78 144.097C259.963 144.145 260.119 144.294 260.119 144.483V154.606C260.119 154.984 260.425 155.291 260.804 155.291C261.182 155.291 261.488 154.984 261.488 154.606V142.779C261.488 142.776 261.488 142.773 261.488 142.769L261.488 105.893C261.488 105.573 261.09 105.428 260.884 105.673L259.579 107.224Z" fill="#C4C4C4"/>
<path fill-rule="evenodd" clip-rule="evenodd" d="M220.747 179.608C220.998 179.653 221.256 179.626 221.492 179.533L252.321 167.3C252.899 167.071 253.25 166.482 253.176 165.865L252.621 161.206C252.612 161.134 252.598 161.064 252.58 160.997C252.529 160.815 252.581 160.606 252.744 160.511L261.511 155.45C261.839 155.261 261.951 154.842 261.762 154.514C261.573 154.187 261.154 154.074 260.826 154.264L250.582 160.178C250.58 160.179 250.578 160.181 250.576 160.182L244.219 163.852L218.64 178.62C218.363 178.78 218.436 179.198 218.751 179.254L220.747 179.608Z" fill="#A4A4A4"/>
<path fill-rule="evenodd" clip-rule="evenodd" d="M220.405 179.266C220.655 179.31 220.913 179.284 221.149 179.19L251.979 166.958C252.556 166.729 252.907 166.14 252.834 165.523L252.278 160.863C252.27 160.791 252.256 160.722 252.237 160.655C252.187 160.473 252.238 160.263 252.402 160.169L261.169 155.107C261.496 154.918 261.608 154.499 261.419 154.172C261.23 153.844 260.811 153.732 260.484 153.921L250.24 159.835C250.238 159.837 250.235 159.838 250.233 159.839L218.297 178.278C218.02 178.437 218.094 178.855 218.409 178.911L220.405 179.266Z" fill="#C4C4C4"/>
<path fill-rule="evenodd" clip-rule="evenodd" d="M302.7 177.956C302.614 177.717 302.462 177.507 302.263 177.349L276.255 156.766C275.767 156.381 275.082 156.372 274.584 156.744L270.827 159.555C270.769 159.598 270.715 159.645 270.667 159.694C270.534 159.829 270.327 159.889 270.163 159.795L261.397 154.733C261.069 154.544 260.65 154.656 260.461 154.984C260.272 155.311 260.384 155.73 260.712 155.919L270.955 161.833C270.958 161.835 270.96 161.836 270.962 161.838L302.898 180.276C303.175 180.436 303.501 180.163 303.392 179.863L302.7 177.956Z" fill="#A4A4A4"/>
<path fill-rule="evenodd" clip-rule="evenodd" d="M302.7 177.272C302.614 177.033 302.462 176.822 302.263 176.665L276.255 156.082C275.767 155.696 275.082 155.687 274.584 156.059L270.827 158.87C270.769 158.913 270.715 158.96 270.667 159.009C270.534 159.144 270.327 159.204 270.163 159.11L261.397 154.048C261.069 153.859 260.65 153.971 260.461 154.299C260.272 154.627 260.384 155.045 260.712 155.235L270.955 161.148C270.957 161.15 270.96 161.151 270.962 161.153L302.898 179.591C303.175 179.751 303.501 179.478 303.392 179.178L302.7 177.272Z" fill="#C4C4C4"/>
<path fill-rule="evenodd" clip-rule="evenodd" d="M262.564 157.38C263.542 156.962 264.228 155.991 264.228 154.86C264.228 153.347 263.001 152.12 261.488 152.12C259.976 152.12 258.749 153.347 258.749 154.86C258.749 155.991 259.435 156.962 260.413 157.38L254.982 248H267.995L262.564 157.38Z" fill="#A4A4A4"/>
<path fill-rule="evenodd" clip-rule="evenodd" d="M261.879 157.38C262.857 156.962 263.543 155.991 263.543 154.86C263.543 153.347 262.316 152.12 260.804 152.12C259.291 152.12 258.064 153.347 258.064 154.86C258.064 155.991 258.75 156.962 259.728 157.38L254.297 248H267.31L261.879 157.38Z" fill="#C4C4C4"/>
</g>
<g opacity="0.6">
<rect x="54" y="122" width="26.7138" height="62.9968" rx="13.3569" fill="#E9EBF2"/>
<rect x="66.7589" y="147.518" width="1.59486" height="98.4823" rx="0.797428" fill="#E1E2E5"/>
<rect x="73.3385" y="151.02" width="1.59486" height="13.443" rx="0.797428" transform="rotate(30 73.3385 151.02)" fill="#E1E2E5"/>
<rect width="1.59486" height="18.9128" rx="0.797428" transform="matrix(0.866025 -0.5 -0.5 -0.866025 67.2009 172.49)" fill="#E1E2E5"/>
</g>
<rect x="89" y="70" width="38.1994" height="90.0821" rx="19.0997" fill="#E9EBF2"/>
<rect x="107.245" y="106.489" width="2.28056" height="140.825" rx="1.14028" fill="#E1E2E5"/>
<rect x="116.653" y="111.496" width="2.28056" height="19.2228" rx="1.14028" transform="rotate(30 116.653 111.496)" fill="#E1E2E5"/>
<rect width="2.28056" height="27.0444" rx="1.14028" transform="matrix(0.866025 -0.5 -0.5 -0.866025 107.877 142.198)" fill="#E1E2E5"/>
<path opacity="0.8" fill-rule="evenodd" clip-rule="evenodd" d="M140 48.9322C140 49.001 139.999 49.0697 139.997 49.1381C144.285 49.2446 147.729 52.7541 147.729 57.0678C147.729 61.3806 144.287 64.8895 140 64.9974V65H139.804C139.802 65 139.799 65 139.797 65C139.794 65 139.791 65 139.789 65H124.136V64.9974C124.068 64.9991 124 65 123.932 65C119.551 65 116 61.4486 116 57.0678C116 52.687 119.551 49.1356 123.932 49.1356C124.001 49.1356 124.07 49.1365 124.138 49.1382C124.136 49.0698 124.136 49.0011 124.136 48.9322C124.136 44.5514 127.687 41 132.068 41C136.449 41 140 44.5514 140 48.9322Z" fill="white"/>
<path opacity="0.6" fill-rule="evenodd" clip-rule="evenodd" d="M286.103 72.8975C286.103 72.9322 286.102 72.9668 286.101 73.0013C288.264 73.0551 290 74.8248 290 77C290 79.1748 288.264 80.9442 286.103 80.9987V81H286.01C286.007 81 286.003 81 286 81C285.996 81 285.993 81 285.989 81H278.103V80.9987C278.069 80.9996 278.034 81 278 81C275.791 81 274 79.2091 274 77C274 74.7909 275.791 73 278 73C278.035 73 278.069 73.0005 278.104 73.0013C278.103 72.9668 278.103 72.9322 278.103 72.8975C278.103 70.6883 279.894 68.8975 282.103 68.8975C284.312 68.8975 286.103 70.6883 286.103 72.8975Z" fill="white"/>
<path fill-rule="evenodd" clip-rule="evenodd" d="M219.2 26.8281C219.2 19.7434 224.943 14 232.028 14C237.286 14 241.804 17.1628 243.786 21.6895C245.061 20.7876 246.617 20.2576 248.298 20.2576C252.252 20.2576 255.52 23.1909 256.046 27H258.98C262.57 27 265.48 29.9101 265.48 33.5C265.48 37.0898 262.57 40 258.98 40H220.5C216.91 40 214 37.0898 214 33.5C214 30.3541 216.235 27.7302 219.203 27.1293C219.201 27.0292 219.2 26.9288 219.2 26.8281Z" fill="white"/>
<path opacity="0.6" fill-rule="evenodd" clip-rule="evenodd" d="M131.121 112.233C131.121 109.343 133.464 107 136.354 107C138.499 107 140.342 108.29 141.15 110.137C141.67 109.769 142.305 109.553 142.991 109.553C144.604 109.553 145.937 110.749 146.152 112.303H147.348C148.813 112.303 150 113.49 150 114.955C150 116.419 148.813 117.606 147.348 117.606H131.652C130.187 117.606 129 116.419 129 114.955C129 113.671 129.912 112.601 131.123 112.356C131.122 112.315 131.121 112.274 131.121 112.233Z" fill="white"/>
<path fill-rule="evenodd" clip-rule="evenodd" d="M315.382 27.71C315.124 28.016 314.957 28.3876 314.899 28.7832L307.318 80.3844C307.176 81.3511 307.702 82.2923 308.6 82.6771L315.382 85.5837C315.487 85.6286 315.593 85.6645 315.698 85.6919C315.986 85.7665 316.231 86.0011 316.231 86.2983V102.217C316.231 102.811 316.713 103.293 317.308 103.293C317.902 103.293 318.385 102.811 318.385 102.217V83.6187C318.385 83.6138 318.385 83.6089 318.385 83.604L318.385 25.6164C318.385 25.114 317.757 24.8854 317.434 25.2699L315.382 27.71Z" fill="#DCDFE6"/>
<path fill-rule="evenodd" clip-rule="evenodd" d="M315.382 26.6331C315.124 26.9391 314.957 27.3107 314.899 27.7063L307.318 79.3075C307.176 80.2742 307.702 81.2154 308.6 81.6002L315.382 84.5068C315.487 84.5517 315.593 84.5876 315.698 84.615C315.986 84.6896 316.231 84.9242 316.231 85.2214V101.14C316.231 101.734 316.713 102.217 317.308 102.217C317.902 102.217 318.385 101.734 318.385 101.14V82.5418C318.385 82.5369 318.385 82.532 318.385 82.5271L318.385 24.5395C318.385 24.0371 317.757 23.8085 317.434 24.193L315.382 26.6331Z" fill="#E9EBF2"/>
<path fill-rule="evenodd" clip-rule="evenodd" d="M254.32 140.455C254.714 140.525 255.119 140.484 255.491 140.336L303.97 121.102C304.878 120.741 305.43 119.815 305.314 118.844L304.44 111.518C304.427 111.405 304.405 111.295 304.376 111.19C304.296 110.903 304.377 110.574 304.635 110.426L318.42 102.467C318.935 102.169 319.112 101.511 318.814 100.996C318.517 100.48 317.858 100.304 317.343 100.601L301.235 109.901C301.232 109.903 301.228 109.905 301.224 109.908L251.006 138.901C250.571 139.153 250.686 139.81 251.181 139.898L254.32 140.455Z" fill="#DCDFE6"/>
<path fill-rule="evenodd" clip-rule="evenodd" d="M253.782 139.916C254.175 139.986 254.581 139.945 254.952 139.798L303.431 120.563C304.339 120.203 304.891 119.276 304.775 118.306L303.902 110.979C303.888 110.866 303.866 110.757 303.837 110.651C303.758 110.365 303.839 110.036 304.096 109.887L317.882 101.928C318.397 101.631 318.573 100.972 318.276 100.457C317.979 99.9418 317.32 99.7654 316.805 100.063L300.697 109.363C300.693 109.365 300.69 109.367 300.686 109.369L250.467 138.363C250.032 138.614 250.148 139.271 250.642 139.359L253.782 139.916Z" fill="#E9EBF2"/>
<path fill-rule="evenodd" clip-rule="evenodd" d="M383.189 137.858C383.053 137.482 382.815 137.151 382.501 136.903L341.604 104.537C340.838 103.931 339.76 103.916 338.977 104.501L333.069 108.921C332.978 108.99 332.894 109.063 332.817 109.141C332.609 109.353 332.283 109.448 332.026 109.299L318.24 101.34C317.725 101.042 317.067 101.219 316.769 101.734C316.472 102.249 316.648 102.908 317.163 103.205L333.27 112.504C333.274 112.507 333.278 112.509 333.282 112.511L383.501 141.505C383.936 141.756 384.448 141.328 384.276 140.855L383.189 137.858Z" fill="#DCDFE6"/>
<path fill-rule="evenodd" clip-rule="evenodd" d="M383.189 136.781C383.053 136.405 382.815 136.075 382.501 135.826L341.604 103.46C340.838 102.854 339.76 102.839 338.977 103.424L333.069 107.845C332.978 107.913 332.894 107.986 332.817 108.064C332.609 108.276 332.283 108.371 332.026 108.222L318.24 100.263C317.725 99.9655 317.067 100.142 316.769 100.657C316.472 101.172 316.648 101.831 317.163 102.128L333.27 111.428C333.274 111.43 333.278 111.432 333.282 111.434L383.501 140.428C383.936 140.679 384.448 140.251 384.276 139.778L383.189 136.781Z" fill="#E9EBF2"/>
<path fill-rule="evenodd" clip-rule="evenodd" d="M320.076 105.501C321.614 104.844 322.692 103.317 322.692 101.538C322.692 99.1593 320.764 97.2307 318.385 97.2307C316.006 97.2307 314.077 99.1593 314.077 101.538C314.077 103.317 315.155 104.844 316.693 105.501L308.154 248H328.615L320.076 105.501Z" fill="#DCDFE6"/>
<path fill-rule="evenodd" clip-rule="evenodd" d="M318.999 105.501C320.537 104.844 321.615 103.317 321.615 101.538C321.615 99.1593 319.687 97.2307 317.308 97.2307C314.929 97.2307 313 99.1593 313 101.538C313 103.317 314.078 104.844 315.616 105.501L307.077 248H327.538L318.999 105.501Z" fill="#E9EBF2"/>
<path d="M329.906 245H318.967C306.293 245 311.761 241.234 314.968 240.503C307.801 237.947 313.082 233.131 316.704 235.14C314.441 226.375 322.174 228.201 323.683 233.131C326.7 228.019 331.981 230.575 328.775 236.053C334.244 233.679 334.244 238.427 331.981 239.887C337.45 240.8 334.394 242.512 331.376 242.512C334.96 244.52 332.319 245 329.906 245Z" fill="#D7D8DE"/>
<path d="M281.906 245H270.967C258.293 245 263.761 241.234 266.968 240.503C259.801 237.947 265.082 233.131 268.704 235.14C266.441 226.375 274.174 228.201 275.683 233.131C278.7 228.019 283.981 230.575 280.775 236.053C286.244 233.679 286.244 238.427 283.981 239.887C289.45 240.8 286.394 242.512 283.376 242.512C286.96 244.52 284.319 245 281.906 245Z" fill="#D7D8DE"/>
<path d="M314.538 246H293.116C268.296 246 279.004 238.938 285.283 237.569C271.248 232.776 281.59 223.746 288.684 227.512C284.252 211.079 299.395 214.503 302.35 223.746C308.259 214.16 318.601 218.953 312.322 229.224C323.033 224.774 323.033 233.675 318.601 236.414C329.312 238.126 323.326 241.335 317.416 241.335C324.434 245.101 319.263 246 314.538 246Z" fill="#E1E1E6"/>
<path d="M271.403 225.831C271.26 224.833 270.842 223.83 269.992 223.143C271.981 223.205 272.738 223.746 273.561 224.553C275.553 226.504 274.486 228.886 273.318 228.504C272.151 228.123 271.552 226.865 271.403 225.831Z" fill="#E5E6ED"/>
<path d="M271.247 223.672C273.329 224.69 274.117 227.384 274.398 228.717L274.133 228.784C273.777 225.991 272.372 224.235 271.247 223.672C271.212 223.654 271.175 223.637 271.139 223.621C271.175 223.636 271.211 223.653 271.247 223.672Z" fill="#727785"/>
<path d="M273.141 224.4C273.484 224.829 273.38 225.487 273.306 225.802L273.242 225.789C273.449 225.154 273.325 224.635 273.141 224.4C273.135 224.392 273.129 224.385 273.123 224.378C273.129 224.385 273.135 224.392 273.141 224.4Z" fill="#727785"/>
<path d="M272.137 224.774C272.308 225.023 272.65 225.076 272.817 225.089L272.819 225.054C272.474 225.058 272.231 224.908 272.137 224.774C272.134 224.77 272.131 224.765 272.128 224.761C272.131 224.765 272.134 224.77 272.137 224.774Z" fill="#727785"/>
<path d="M273.96 225.39C274.181 225.894 273.911 226.503 273.758 226.787L273.7 226.759C274.063 226.198 274.078 225.665 273.96 225.39C273.956 225.382 273.952 225.373 273.948 225.365C273.952 225.373 273.956 225.382 273.96 225.39Z" fill="#727785"/>
<path d="M272.24 225.721C272.547 226.177 273.205 226.276 273.528 226.3L273.535 226.235C272.867 226.241 272.409 225.967 272.24 225.721C272.235 225.713 272.23 225.705 272.225 225.697C272.23 225.705 272.235 225.713 272.24 225.721Z" fill="#727785"/>
<path d="M272.228 226.768C272.655 227.432 273.542 227.599 273.975 227.644L273.982 227.552C273.087 227.536 272.463 227.127 272.228 226.768C272.221 226.757 272.213 226.745 272.206 226.733C272.213 226.745 272.22 226.757 272.228 226.768Z" fill="#727785"/>
<path d="M330.01 228.284C330.591 227.46 331.419 226.757 332.489 226.531C330.69 225.682 329.769 225.821 328.669 226.165C326.009 226.997 325.876 229.604 327.089 229.795C328.303 229.985 329.408 229.137 330.01 228.284Z" fill="#E5E6ED"/>
<path d="M331.13 226.432C328.814 226.393 326.887 228.434 326.031 229.494L326.236 229.674C327.823 227.347 329.872 226.422 331.13 226.432C331.17 226.432 331.211 226.434 331.251 226.436C331.211 226.433 331.171 226.432 331.13 226.432Z" fill="#727785"/>
<path d="M329.113 226.219C328.612 226.446 328.405 227.079 328.329 227.393L328.392 227.411C328.496 226.751 328.842 226.345 329.113 226.219C329.122 226.215 329.13 226.212 329.139 226.208C329.131 226.211 329.122 226.215 329.113 226.219Z" fill="#727785"/>
<path d="M329.838 227.009C329.572 227.154 329.243 227.045 329.089 226.981L329.103 226.948C329.408 227.108 329.693 227.086 329.838 227.009C329.842 227.007 329.847 227.004 329.851 227.002C329.847 227.004 329.842 227.007 329.838 227.009Z" fill="#727785"/>
<path d="M327.933 226.73C327.507 227.077 327.471 227.743 327.478 228.066L327.543 228.067C327.474 227.402 327.704 226.921 327.933 226.73C327.941 226.724 327.948 226.718 327.956 226.712C327.948 226.718 327.941 226.723 327.933 226.73Z" fill="#727785"/>
<path d="M329.315 227.805C328.834 228.073 328.203 227.862 327.905 227.736L327.928 227.675C328.52 227.984 329.053 227.948 329.315 227.805C329.323 227.801 329.331 227.796 329.339 227.791C329.332 227.796 329.323 227.801 329.315 227.805Z" fill="#727785"/>
<path d="M328.85 228.744C328.167 229.142 327.302 228.887 326.895 228.73L326.931 228.645C327.736 229.037 328.477 228.957 328.85 228.744C328.861 228.737 328.873 228.73 328.885 228.723C328.874 228.73 328.862 228.737 328.85 228.744Z" fill="#727785"/>
<path d="M307.101 211.924C307.171 210.918 307.516 209.888 308.313 209.14C306.334 209.346 305.619 209.942 304.856 210.806C303.012 212.896 304.249 215.195 305.386 214.729C306.522 214.264 307.029 212.965 307.101 211.924Z" fill="#E5E6ED"/>
<path d="M307.1 209.759C305.098 210.926 304.508 213.67 304.324 215.02L304.594 215.067C304.745 212.256 306.019 210.402 307.1 209.759C307.134 209.739 307.169 209.719 307.205 209.7C307.17 209.718 307.135 209.738 307.1 209.759Z" fill="#727785"/>
<path d="M305.264 210.623C304.953 211.076 305.105 211.725 305.202 212.033L305.265 212.016C305.012 211.397 305.098 210.87 305.264 210.623C305.27 210.615 305.275 210.607 305.281 210.599C305.275 210.607 305.27 210.615 305.264 210.623Z" fill="#727785"/>
<path d="M306.293 210.923C306.141 211.184 305.803 211.262 305.638 211.286L305.633 211.251C305.977 211.23 306.209 211.064 306.293 210.923C306.296 210.919 306.298 210.914 306.301 210.909C306.298 210.914 306.296 210.919 306.293 210.923Z" fill="#727785"/>
<path d="M304.519 211.67C304.335 212.188 304.649 212.776 304.822 213.049L304.878 213.016C304.475 212.484 304.422 211.953 304.519 211.67C304.522 211.661 304.526 211.652 304.529 211.644C304.526 211.652 304.522 211.661 304.519 211.67Z" fill="#727785"/>
<path d="M306.258 211.875C305.986 212.352 305.336 212.499 305.017 212.546L305.005 212.482C305.671 212.439 306.108 212.133 306.258 211.875C306.263 211.866 306.268 211.858 306.272 211.85C306.268 211.858 306.263 211.866 306.258 211.875Z" fill="#727785"/>
<path d="M306.347 212.919C305.969 213.612 305.097 213.842 304.668 213.919L304.654 213.828C305.546 213.746 306.139 213.293 306.347 212.919C306.354 212.907 306.36 212.895 306.366 212.882C306.36 212.894 306.354 212.906 306.347 212.919Z" fill="#727785"/>
<path d="M285.5 212.729C285.466 212.137 285.271 211.528 284.807 211.082C285.97 211.218 286.387 211.573 286.829 212.088C287.899 213.331 287.155 214.674 286.489 214.392C285.824 214.11 285.535 213.342 285.5 212.729Z" fill="#E5E6ED"/>
<path d="M285.517 211.455C286.686 212.156 287.013 213.775 287.111 214.571L286.953 214.597C286.884 212.941 286.148 211.842 285.517 211.455C285.497 211.443 285.476 211.431 285.456 211.42C285.476 211.431 285.496 211.443 285.517 211.455Z" fill="#727785"/>
<path d="M286.591 211.977C286.77 212.246 286.677 212.626 286.617 212.807L286.58 212.796C286.733 212.434 286.687 212.124 286.591 211.977C286.588 211.972 286.584 211.967 286.581 211.963C286.584 211.967 286.587 211.972 286.591 211.977Z" fill="#727785"/>
<path d="M285.983 212.146C286.071 212.3 286.269 212.349 286.366 212.364L286.369 212.344C286.167 212.329 286.031 212.229 285.983 212.146C285.982 212.143 285.98 212.14 285.979 212.138C285.98 212.14 285.982 212.143 285.983 212.146Z" fill="#727785"/>
<path d="M287.021 212.599C287.126 212.905 286.937 213.248 286.833 213.407L286.8 213.388C287.041 213.077 287.076 212.765 287.021 212.599C287.019 212.593 287.017 212.588 287.016 212.583C287.017 212.588 287.019 212.593 287.021 212.599Z" fill="#727785"/>
<path d="M285.997 212.706C286.153 212.989 286.534 213.08 286.722 213.11L286.73 213.072C286.338 213.042 286.083 212.859 285.997 212.706C285.994 212.701 285.991 212.696 285.989 212.691C285.991 212.696 285.994 212.701 285.997 212.706Z" fill="#727785"/>
<path d="M285.937 213.32C286.154 213.73 286.666 213.872 286.917 213.921L286.926 213.867C286.402 213.812 286.057 213.542 285.937 213.32C285.933 213.313 285.929 213.305 285.926 213.298C285.929 213.305 285.933 213.312 285.937 213.32Z" fill="#727785"/>
<path d="M73.5896 246H62.9758C50.6784 246 55.984 242.501 59.0949 241.823C52.141 239.448 57.2649 234.974 60.7798 236.84C58.5839 228.698 66.0867 230.394 67.5507 234.974C70.4786 230.225 75.6025 232.6 72.4916 237.688C77.7985 235.483 77.7985 239.894 75.6025 241.25C80.9094 242.099 77.9435 243.689 75.0156 243.689C78.4925 245.555 75.9306 246 73.5896 246Z" fill="#EDEEF2"/>
<path d="M79.4763 245.505H74.0565C67.777 245.505 70.4862 243.639 72.0747 243.277C68.5238 242.01 71.1403 239.624 72.9351 240.619C71.8138 236.277 75.645 237.182 76.3926 239.624C77.8877 237.091 80.5042 238.358 78.9156 241.072C81.6255 239.896 81.6255 242.248 80.5042 242.972C83.2141 243.424 81.6995 244.272 80.2044 244.272C81.9799 245.267 80.6717 245.505 79.4763 245.505Z" fill="#DFE0E6"/>
<path d="M55.2465 233.448C54.9587 233.04 54.5483 232.692 54.0183 232.58C54.9099 232.159 55.3659 232.228 55.9112 232.399C57.2291 232.811 57.295 234.102 56.6938 234.197C56.0925 234.291 55.5447 233.871 55.2465 233.448Z" fill="#E5E6ED"/>
<path d="M54.6914 232.531C55.8394 232.511 56.7939 233.523 57.2181 234.048L57.1162 234.137C56.3303 232.984 55.3147 232.526 54.6914 232.531C54.6716 232.531 54.6518 232.532 54.6318 232.532C54.6513 232.531 54.6712 232.531 54.6914 232.531Z" fill="#727785"/>
<path d="M55.691 232.426C55.9392 232.538 56.0415 232.851 56.0793 233.007L56.0484 233.016C55.9966 232.689 55.8252 232.488 55.691 232.426C55.6867 232.424 55.6824 232.422 55.678 232.42C55.6823 232.422 55.6866 232.424 55.691 232.426Z" fill="#727785"/>
<path d="M55.3321 232.817C55.4636 232.888 55.6267 232.835 55.7031 232.803L55.696 232.787C55.5451 232.866 55.4038 232.855 55.3321 232.817C55.3298 232.816 55.3276 232.814 55.3253 232.813C55.3275 232.814 55.3298 232.816 55.3321 232.817Z" fill="#727785"/>
<path d="M56.2756 232.678C56.4866 232.851 56.5046 233.18 56.5011 233.34L56.469 233.341C56.5031 233.012 56.3893 232.773 56.2756 232.678C56.272 232.675 56.2683 232.672 56.2645 232.669C56.2682 232.672 56.2719 232.675 56.2756 232.678Z" fill="#727785"/>
<path d="M55.591 233.211C55.829 233.344 56.1419 233.239 56.2895 233.177L56.2781 233.147C55.9847 233.3 55.7208 233.282 55.591 233.211C55.5869 233.209 55.5828 233.207 55.5787 233.204C55.5827 233.207 55.5868 233.209 55.591 233.211Z" fill="#727785"/>
<path d="M55.8215 233.676C56.1598 233.873 56.5884 233.747 56.7898 233.669L56.7723 233.627C56.3735 233.821 56.006 233.782 55.8215 233.676C55.8157 233.673 55.8099 233.669 55.8041 233.666C55.8097 233.669 55.8155 233.673 55.8215 233.676Z" fill="#727785"/>
<path d="M79.9787 236.917C80.2665 236.508 80.677 236.16 81.2069 236.048C80.3153 235.628 79.8593 235.696 79.3141 235.867C77.9961 236.279 77.9302 237.571 78.5315 237.665C79.1327 237.76 79.6805 237.339 79.9787 236.917Z" fill="#E5E6ED"/>
<path d="M80.5338 235.999C79.3858 235.979 78.4314 236.991 78.0071 237.516L78.109 237.605C78.8949 236.453 79.9105 235.994 80.5338 235.999C80.5536 235.999 80.5735 236 80.5934 236.001C80.5739 236 80.5541 235.999 80.5338 235.999Z" fill="#727785"/>
<path d="M79.5343 235.894C79.286 236.006 79.1837 236.32 79.1459 236.475L79.1768 236.484C79.2286 236.157 79.4 235.956 79.5343 235.894C79.5385 235.892 79.5429 235.89 79.5472 235.888C79.543 235.89 79.5386 235.892 79.5343 235.894Z" fill="#727785"/>
<path d="M79.8931 236.285C79.7616 236.357 79.5985 236.303 79.5221 236.271L79.5292 236.255C79.6802 236.334 79.8214 236.323 79.8931 236.285C79.8954 236.284 79.8977 236.283 79.8999 236.281C79.8977 236.283 79.8955 236.284 79.8931 236.285Z" fill="#727785"/>
<path d="M78.9496 236.146C78.7386 236.319 78.7206 236.648 78.7241 236.808L78.7563 236.809C78.7221 236.48 78.8359 236.241 78.9496 236.146C78.9532 236.144 78.9569 236.141 78.9607 236.138C78.957 236.14 78.9533 236.143 78.9496 236.146Z" fill="#727785"/>
<path d="M79.6342 236.679C79.3963 236.812 79.0833 236.707 78.9358 236.645L78.9471 236.615C79.2406 236.768 79.5044 236.75 79.6342 236.679C79.6383 236.677 79.6424 236.675 79.6465 236.672C79.6425 236.675 79.6385 236.677 79.6342 236.679Z" fill="#727785"/>
<path d="M79.4037 237.145C79.0654 237.342 78.6368 237.215 78.4354 237.138L78.4529 237.096C78.8517 237.29 79.2192 237.25 79.4037 237.145C79.4095 237.141 79.4154 237.138 79.4211 237.134C79.4155 237.138 79.4097 237.141 79.4037 237.145Z" fill="#727785"/>
<path d="M68.914 231.098C68.9487 230.6 69.1193 230.09 69.5146 229.719C68.5341 229.822 68.1796 230.117 67.8016 230.545C66.888 231.58 67.5008 232.719 68.064 232.489C68.6271 232.258 68.878 231.615 68.914 231.098Z" fill="#E5E6ED"/>
<path d="M68.9133 230.026C67.9215 230.604 67.6291 231.964 67.5382 232.632L67.6716 232.656C67.7467 231.263 68.3778 230.345 68.9133 230.026C68.9305 230.016 68.9478 230.006 68.9653 229.997C68.9481 230.006 68.9308 230.015 68.9133 230.026Z" fill="#727785"/>
<path d="M68.0039 230.454C67.8497 230.679 67.9248 231 67.9731 231.153L68.004 231.144C67.879 230.838 67.9213 230.577 68.0039 230.454C68.0066 230.45 68.0093 230.446 68.0121 230.442C68.0093 230.446 68.0066 230.45 68.0039 230.454Z" fill="#727785"/>
<path d="M68.5136 230.603C68.4381 230.732 68.2709 230.771 68.1889 230.783L68.1867 230.765C68.3569 230.755 68.4721 230.673 68.5136 230.603C68.5149 230.6 68.5162 230.598 68.5175 230.596C68.5163 230.598 68.515 230.6 68.5136 230.603Z" fill="#727785"/>
<path d="M67.6348 230.973C67.5437 231.23 67.699 231.521 67.785 231.656L67.8127 231.64C67.6129 231.376 67.5866 231.113 67.6348 230.973C67.6364 230.969 67.638 230.964 67.6398 230.96C67.638 230.964 67.6364 230.968 67.6348 230.973Z" fill="#727785"/>
<path d="M68.4965 231.074C68.3617 231.311 68.0397 231.383 67.8813 231.407L67.8754 231.375C68.2057 231.354 68.4221 231.202 68.4965 231.074C68.4988 231.07 68.5011 231.066 68.5033 231.062C68.5012 231.066 68.4989 231.07 68.4965 231.074Z" fill="#727785"/>
<path d="M68.5403 231.591C68.353 231.935 67.9209 232.049 67.7085 232.087L67.7016 232.042C68.1434 232.002 68.4371 231.777 68.5403 231.591C68.5436 231.586 68.5467 231.58 68.5498 231.573C68.5468 231.579 68.5437 231.585 68.5403 231.591Z" fill="#727785"/>
<path d="M58.4658 231.002C58.449 230.708 58.3523 230.407 58.1225 230.186C58.6986 230.253 58.905 230.429 59.1243 230.684C59.6543 231.3 59.2854 231.966 58.9557 231.826C58.6261 231.686 58.4832 231.306 58.4658 231.002Z" fill="#E5E6ED"/>
<path d="M58.474 230.371C59.0533 230.718 59.2154 231.52 59.264 231.914L59.1854 231.927C59.1514 231.107 58.7868 230.562 58.474 230.371C58.464 230.365 58.4539 230.359 58.4436 230.353C58.4537 230.359 58.4638 230.365 58.474 230.371Z" fill="#727785"/>
<path d="M59.006 230.629C59.095 230.762 59.0485 230.951 59.019 231.04L59.0008 231.035C59.0767 230.856 59.0537 230.702 59.006 230.629C59.0044 230.627 59.0028 230.625 59.0012 230.622C59.0028 230.625 59.0044 230.627 59.006 230.629Z" fill="#727785"/>
<path d="M58.705 230.713C58.7484 230.79 58.8466 230.814 58.8947 230.821L58.8961 230.811C58.7961 230.804 58.7289 230.754 58.705 230.713C58.7042 230.712 58.7035 230.71 58.7028 230.709C58.7034 230.71 58.7042 230.712 58.705 230.713Z" fill="#727785"/>
<path d="M59.2192 230.937C59.271 231.089 59.1775 231.259 59.1259 231.338L59.1097 231.328C59.2292 231.175 59.2466 231.02 59.2192 230.937C59.2183 230.935 59.2174 230.932 59.2164 230.929C59.2174 230.932 59.2184 230.935 59.2192 230.937Z" fill="#727785"/>
<path d="M58.7116 230.991C58.7892 231.131 58.978 231.176 59.0711 231.191L59.0748 231.172C58.8806 231.157 58.7544 231.066 58.7116 230.991C58.7102 230.988 58.7089 230.986 58.7076 230.983C58.7089 230.986 58.7102 230.988 58.7116 230.991Z" fill="#727785"/>
<path d="M58.682 231.295C58.7897 231.498 59.0431 231.568 59.1677 231.592L59.1721 231.566C58.9125 231.539 58.7414 231.405 58.682 231.295C58.6801 231.291 58.6783 231.288 58.6765 231.284C58.6782 231.287 58.68 231.291 58.682 231.295Z" fill="#727785"/>
<path d="M76.7595 234.47C76.7763 234.177 76.8729 233.875 77.1028 233.654C76.5266 233.722 76.3202 233.898 76.101 234.152C75.571 234.768 75.9398 235.434 76.2695 235.294C76.5991 235.154 76.7421 234.774 76.7595 234.47Z" fill="#E5E6ED"/>
<path d="M76.7512 233.839C76.1719 234.187 76.0098 234.989 75.9612 235.383L76.0398 235.396C76.0739 234.576 76.4385 234.031 76.7512 233.839C76.7612 233.833 76.7714 233.827 76.7816 233.822C76.7716 233.827 76.7614 233.833 76.7512 233.839Z" fill="#727785"/>
<path d="M76.2193 234.097C76.1302 234.231 76.1767 234.419 76.2062 234.509L76.2244 234.503C76.1486 234.324 76.1716 234.17 76.2193 234.097C76.2208 234.095 76.2224 234.093 76.224 234.091C76.2224 234.093 76.2208 234.095 76.2193 234.097Z" fill="#727785"/>
<path d="M76.5203 234.181C76.4768 234.258 76.3787 234.282 76.3305 234.29L76.3291 234.279C76.4292 234.272 76.4963 234.223 76.5203 234.181C76.521 234.18 76.5217 234.179 76.5225 234.177C76.5218 234.179 76.521 234.18 76.5203 234.181Z" fill="#727785"/>
<path d="M76.006 234.406C75.9542 234.557 76.0477 234.727 76.0993 234.806L76.1155 234.797C75.996 234.643 75.9786 234.488 76.006 234.406C76.0069 234.403 76.0078 234.4 76.0088 234.398C76.0078 234.4 76.0069 234.403 76.006 234.406Z" fill="#727785"/>
<path d="M76.5137 234.459C76.4361 234.599 76.2472 234.644 76.1541 234.659L76.1504 234.64C76.3446 234.625 76.4708 234.535 76.5137 234.459C76.515 234.456 76.5163 234.454 76.5176 234.451C76.5164 234.454 76.5151 234.456 76.5137 234.459Z" fill="#727785"/>
<path d="M76.5433 234.763C76.4355 234.966 76.1821 235.037 76.0575 235.061L76.0531 235.034C76.3127 235.007 76.4839 234.873 76.5433 234.763C76.5451 234.759 76.5469 234.756 76.5487 234.752C76.547 234.756 76.5452 234.759 76.5433 234.763Z" fill="#727785"/>
<path d="M114.59 246H103.976C91.6784 246 96.984 242.501 100.095 241.823C93.141 239.448 98.2649 234.974 101.78 236.84C99.5839 228.698 107.087 230.394 108.551 234.974C111.479 230.225 116.603 232.6 113.492 237.688C118.799 235.483 118.799 239.894 116.603 241.25C121.909 242.099 118.943 243.689 116.016 243.689C119.493 245.555 116.931 246 114.59 246Z" fill="#EDEEF2"/>
<path d="M120.476 245.505H115.056C108.777 245.505 111.486 243.639 113.075 243.277C109.524 242.01 112.14 239.624 113.935 240.619C112.814 236.277 116.645 237.182 117.393 239.624C118.888 237.091 121.504 238.358 119.916 241.072C122.626 239.896 122.626 242.248 121.504 242.972C124.214 243.424 122.7 244.272 121.204 244.272C122.98 245.267 121.672 245.505 120.476 245.505Z" fill="#DFE0E6"/>
<path d="M96.2465 233.448C95.9587 233.04 95.5483 232.692 95.0183 232.58C95.9099 232.159 96.3659 232.228 96.9112 232.399C98.2291 232.811 98.295 234.102 97.6938 234.197C97.0925 234.291 96.5447 233.871 96.2465 233.448Z" fill="#E5E6ED"/>
<path d="M95.6914 232.531C96.8394 232.511 97.7939 233.523 98.2181 234.048L98.1162 234.137C97.3303 232.984 96.3147 232.526 95.6914 232.531C95.6716 232.531 95.6518 232.532 95.6318 232.532C95.6513 232.531 95.6712 232.531 95.6914 232.531Z" fill="#727785"/>
<path d="M96.691 232.426C96.9392 232.538 97.0415 232.851 97.0793 233.007L97.0484 233.016C96.9966 232.689 96.8252 232.488 96.691 232.426C96.6867 232.424 96.6824 232.422 96.678 232.42C96.6823 232.422 96.6866 232.424 96.691 232.426Z" fill="#727785"/>
<path d="M96.3321 232.817C96.4636 232.888 96.6267 232.835 96.7031 232.803L96.696 232.787C96.5451 232.866 96.4038 232.855 96.3321 232.817C96.3298 232.816 96.3276 232.814 96.3253 232.813C96.3275 232.814 96.3298 232.816 96.3321 232.817Z" fill="#727785"/>
<path d="M97.2756 232.678C97.4866 232.851 97.5046 233.18 97.5011 233.34L97.469 233.341C97.5031 233.012 97.3893 232.773 97.2756 232.678C97.272 232.675 97.2683 232.672 97.2645 232.669C97.2682 232.672 97.2719 232.675 97.2756 232.678Z" fill="#727785"/>
<path d="M96.591 233.211C96.829 233.344 97.1419 233.239 97.2895 233.177L97.2781 233.147C96.9847 233.3 96.7208 233.282 96.591 233.211C96.5869 233.209 96.5828 233.207 96.5787 233.204C96.5827 233.207 96.5868 233.209 96.591 233.211Z" fill="#727785"/>
<path d="M96.8215 233.676C97.1598 233.873 97.5884 233.747 97.7898 233.669L97.7723 233.627C97.3735 233.821 97.006 233.782 96.8215 233.676C96.8157 233.673 96.8099 233.669 96.8041 233.666C96.8097 233.669 96.8155 233.673 96.8215 233.676Z" fill="#727785"/>
<path d="M120.979 236.917C121.267 236.508 121.677 236.16 122.207 236.048C121.315 235.628 120.859 235.696 120.314 235.867C118.996 236.279 118.93 237.571 119.531 237.665C120.133 237.76 120.681 237.339 120.979 236.917Z" fill="#E5E6ED"/>
<path d="M121.534 235.999C120.386 235.979 119.431 236.991 119.007 237.516L119.109 237.605C119.895 236.453 120.91 235.994 121.534 235.999C121.554 235.999 121.573 236 121.593 236.001C121.574 236 121.554 235.999 121.534 235.999Z" fill="#727785"/>
<path d="M120.534 235.894C120.286 236.006 120.184 236.32 120.146 236.475L120.177 236.484C120.229 236.157 120.4 235.956 120.534 235.894C120.539 235.892 120.543 235.89 120.547 235.888C120.543 235.89 120.539 235.892 120.534 235.894Z" fill="#727785"/>
<path d="M120.893 236.285C120.762 236.357 120.598 236.303 120.522 236.271L120.529 236.255C120.68 236.334 120.821 236.323 120.893 236.285C120.895 236.284 120.898 236.283 120.9 236.281C120.898 236.283 120.895 236.284 120.893 236.285Z" fill="#727785"/>
<path d="M119.95 236.146C119.739 236.319 119.721 236.648 119.724 236.808L119.756 236.809C119.722 236.48 119.836 236.241 119.95 236.146C119.953 236.144 119.957 236.141 119.961 236.138C119.957 236.14 119.953 236.143 119.95 236.146Z" fill="#727785"/>
<path d="M120.634 236.679C120.396 236.812 120.083 236.707 119.936 236.645L119.947 236.615C120.241 236.768 120.504 236.75 120.634 236.679C120.638 236.677 120.642 236.675 120.646 236.672C120.643 236.675 120.638 236.677 120.634 236.679Z" fill="#727785"/>
<path d="M120.404 237.145C120.065 237.342 119.637 237.215 119.435 237.138L119.453 237.096C119.852 237.29 120.219 237.25 120.404 237.145C120.41 237.141 120.415 237.138 120.421 237.134C120.416 237.138 120.41 237.141 120.404 237.145Z" fill="#727785"/>
<path d="M109.914 231.098C109.949 230.6 110.119 230.09 110.515 229.719C109.534 229.822 109.18 230.117 108.802 230.545C107.888 231.58 108.501 232.719 109.064 232.489C109.627 232.258 109.878 231.615 109.914 231.098Z" fill="#E5E6ED"/>
<path d="M109.913 230.026C108.921 230.604 108.629 231.964 108.538 232.632L108.672 232.656C108.747 231.263 109.378 230.345 109.913 230.026C109.93 230.016 109.948 230.006 109.965 229.997C109.948 230.006 109.931 230.015 109.913 230.026Z" fill="#727785"/>
<path d="M109.004 230.454C108.85 230.679 108.925 231 108.973 231.153L109.004 231.144C108.879 230.838 108.921 230.577 109.004 230.454C109.007 230.45 109.009 230.446 109.012 230.442C109.009 230.446 109.007 230.45 109.004 230.454Z" fill="#727785"/>
<path d="M109.514 230.603C109.438 230.732 109.271 230.771 109.189 230.783L109.187 230.765C109.357 230.755 109.472 230.673 109.514 230.603C109.515 230.6 109.516 230.598 109.517 230.596C109.516 230.598 109.515 230.6 109.514 230.603Z" fill="#727785"/>
<path d="M108.635 230.973C108.544 231.23 108.699 231.521 108.785 231.656L108.813 231.64C108.613 231.376 108.587 231.113 108.635 230.973C108.636 230.969 108.638 230.964 108.64 230.96C108.638 230.964 108.636 230.968 108.635 230.973Z" fill="#727785"/>
<path d="M109.496 231.074C109.362 231.311 109.04 231.383 108.881 231.407L108.875 231.375C109.206 231.354 109.422 231.202 109.496 231.074C109.499 231.07 109.501 231.066 109.503 231.062C109.501 231.066 109.499 231.07 109.496 231.074Z" fill="#727785"/>
<path d="M109.54 231.591C109.353 231.935 108.921 232.049 108.709 232.087L108.702 232.042C109.143 232.002 109.437 231.777 109.54 231.591C109.544 231.586 109.547 231.58 109.55 231.573C109.547 231.579 109.544 231.585 109.54 231.591Z" fill="#727785"/>
<path d="M99.4658 231.002C99.449 230.708 99.3523 230.407 99.1225 230.186C99.6986 230.253 99.905 230.429 100.124 230.684C100.654 231.3 100.285 231.966 99.9557 231.826C99.6261 231.686 99.4832 231.306 99.4658 231.002Z" fill="#E5E6ED"/>
<path d="M99.474 230.371C100.053 230.718 100.215 231.52 100.264 231.914L100.185 231.927C100.151 231.107 99.7868 230.562 99.474 230.371C99.464 230.365 99.4539 230.359 99.4436 230.353C99.4537 230.359 99.4638 230.365 99.474 230.371Z" fill="#727785"/>
<path d="M100.006 230.629C100.095 230.762 100.049 230.951 100.019 231.04L100.001 231.035C100.077 230.856 100.054 230.702 100.006 230.629C100.004 230.627 100.003 230.625 100.001 230.622C100.003 230.625 100.004 230.627 100.006 230.629Z" fill="#727785"/>
<path d="M99.705 230.713C99.7484 230.79 99.8466 230.814 99.8947 230.821L99.8961 230.811C99.7961 230.804 99.7289 230.754 99.705 230.713C99.7042 230.712 99.7035 230.71 99.7028 230.709C99.7034 230.71 99.7042 230.712 99.705 230.713Z" fill="#727785"/>
<path d="M100.219 230.937C100.271 231.089 100.178 231.259 100.126 231.338L100.11 231.328C100.229 231.175 100.247 231.02 100.219 230.937C100.218 230.935 100.217 230.932 100.216 230.929C100.217 230.932 100.218 230.935 100.219 230.937Z" fill="#727785"/>
<path d="M99.7116 230.991C99.7892 231.131 99.978 231.176 100.071 231.191L100.075 231.172C99.8806 231.157 99.7544 231.066 99.7116 230.991C99.7102 230.988 99.7089 230.986 99.7076 230.983C99.7089 230.986 99.7102 230.988 99.7116 230.991Z" fill="#727785"/>
<path d="M99.682 231.295C99.7897 231.498 100.043 231.568 100.168 231.592L100.172 231.566C99.9125 231.539 99.7414 231.405 99.682 231.295C99.6801 231.291 99.6783 231.288 99.6765 231.284C99.6782 231.287 99.68 231.291 99.682 231.295Z" fill="#727785"/>
<path d="M117.759 234.47C117.776 234.177 117.873 233.875 118.103 233.654C117.527 233.722 117.32 233.898 117.101 234.152C116.571 234.768 116.94 235.434 117.269 235.294C117.599 235.154 117.742 234.774 117.759 234.47Z" fill="#E5E6ED"/>
<path d="M117.751 233.839C117.172 234.187 117.01 234.989 116.961 235.383L117.04 235.396C117.074 234.576 117.438 234.031 117.751 233.839C117.761 233.833 117.771 233.827 117.782 233.822C117.772 233.827 117.761 233.833 117.751 233.839Z" fill="#727785"/>
<path d="M117.219 234.097C117.13 234.231 117.177 234.419 117.206 234.509L117.224 234.503C117.149 234.324 117.172 234.17 117.219 234.097C117.221 234.095 117.222 234.093 117.224 234.091C117.222 234.093 117.221 234.095 117.219 234.097Z" fill="#727785"/>
<path d="M117.52 234.181C117.477 234.258 117.379 234.282 117.33 234.29L117.329 234.279C117.429 234.272 117.496 234.223 117.52 234.181C117.521 234.18 117.522 234.179 117.522 234.177C117.522 234.179 117.521 234.18 117.52 234.181Z" fill="#727785"/>
<path d="M117.006 234.406C116.954 234.557 117.048 234.727 117.099 234.806L117.116 234.797C116.996 234.643 116.979 234.488 117.006 234.406C117.007 234.403 117.008 234.4 117.009 234.398C117.008 234.4 117.007 234.403 117.006 234.406Z" fill="#727785"/>
<path d="M117.514 234.459C117.436 234.599 117.247 234.644 117.154 234.659L117.15 234.64C117.345 234.625 117.471 234.535 117.514 234.459C117.515 234.456 117.516 234.454 117.518 234.451C117.516 234.454 117.515 234.456 117.514 234.459Z" fill="#727785"/>
<path d="M117.543 234.763C117.436 234.966 117.182 235.037 117.057 235.061L117.053 235.034C117.313 235.007 117.484 234.873 117.543 234.763C117.545 234.759 117.547 234.756 117.549 234.752C117.547 234.756 117.545 234.759 117.543 234.763Z" fill="#727785"/>
<rect x="195.5" y="115.5" width="7" height="129" fill="#1D1D1D" stroke="#1D1D1D"/>
<rect x="195" y="115" width="6" height="130" fill="#ee3824"/>
<path d="M224.717 44.5634C228.026 44.5634 231.083 46.3286 232.738 49.1942L257.954 92.8699C259.608 95.7354 259.608 99.266 257.954 102.132L232.738 145.807C231.083 148.673 228.026 150.438 224.717 150.438L174.284 150.438C170.976 150.438 167.918 148.673 166.264 145.807L141.048 102.132C139.393 99.266 139.393 95.7354 141.047 92.8699L166.264 49.1942C167.918 46.3286 170.976 44.5634 174.284 44.5634L224.717 44.5634Z" fill="#ee3824"/>
<path fill-rule="evenodd" clip-rule="evenodd" d="M153.589 123.854C192.159 119.665 222.18 86.9923 222.18 47.308C222.18 46.3893 222.164 45.4744 222.132 44.5635L174.284 44.5635C170.976 44.5635 167.918 46.3287 166.264 49.1943L141.047 92.87C139.393 95.7355 139.393 99.2661 141.047 102.132L153.589 123.854Z" fill="white" fill-opacity="0.15"/>
<path d="M221.438 51.15C223.862 51.15 226.102 52.4433 227.315 54.5427L249.873 93.6152C251.085 95.7146 251.085 98.3012 249.873 100.401L227.315 139.473C226.102 141.573 223.862 142.866 221.438 142.866L176.321 142.866C173.897 142.866 171.657 141.573 170.445 139.473L147.886 100.401C146.674 98.3012 146.674 95.7146 147.886 93.6152L170.445 54.5427C171.657 52.4433 173.897 51.15 176.321 51.15L221.438 51.15Z" stroke="white" stroke-width="3"/>
<path d="M187.026 105.908V101.308H184.786V94.8279H179.546V101.308H174.226L182.106 82.7079H176.866L168.986 101.308V105.908H179.546V110.308H184.786V105.908H187.026ZM192.445 108.388C193.805 109.988 195.885 110.748 198.685 110.748C201.485 110.748 203.525 109.948 204.885 108.348C206.245 106.748 206.925 104.388 206.925 101.228V91.4679C206.925 88.4279 206.245 86.1479 204.885 84.5879C203.525 83.0679 201.485 82.2679 198.685 82.2679C195.965 82.2679 193.925 83.0679 192.525 84.6279C191.125 86.1879 190.445 88.4679 190.445 91.4679V101.228C190.445 104.428 191.085 106.788 192.445 108.388ZM201.045 104.988C200.645 105.788 199.845 106.188 198.685 106.188C197.525 106.188 196.725 105.788 196.325 104.988C195.925 104.188 195.725 102.788 195.725 100.788V92.2279C195.725 90.2679 195.925 88.8679 196.325 88.0679C196.725 87.2679 197.485 86.8679 198.685 86.8679C199.845 86.8679 200.645 87.2679 201.045 88.0679C201.445 88.8679 201.685 90.2679 201.685 92.2279V100.788C201.685 102.788 201.445 104.188 201.045 104.988ZM228.354 105.908V101.308H226.114V94.8279H220.874V101.308H215.554L223.434 82.7079H218.194L210.314 101.308V105.908H220.874V110.308H226.114V105.908H228.354Z" fill="white"/>
<path d="M143.357 169H153.232L175.674 239.02H120.914L143.357 169Z" fill="white"/>
<path fill-rule="evenodd" clip-rule="evenodd" d="M143.357 169H153.232L162.295 197.277H134.294L143.357 169ZM131.704 205.357L128.395 215.68H168.193L164.884 205.357H131.704ZM125.806 223.76H170.783L175.674 239.02H120.914L125.806 223.76Z" fill="#ee3824"/>
<rect x="107" y="239.021" width="82.5882" height="6.28389" fill="#ee3824"/>
<path fill-rule="evenodd" clip-rule="evenodd" d="M173.516 232.288L175.674 239.021H120.914L123.072 232.288H173.516Z" fill="black" fill-opacity="0.2"/>
<mask id="mask0_2169_71943" style="mask-type:alpha" maskUnits="userSpaceOnUse" x="107" y="169" width="83" height="77">
<path fill-rule="evenodd" clip-rule="evenodd" d="M143.357 169H153.232L162.295 197.277H134.294L143.357 169ZM131.704 205.357L128.395 215.68H168.193L164.884 205.357H131.704ZM125.806 223.76H170.783L175.674 239.02H120.914L125.806 223.76Z" fill="#ee3824"/>
<rect x="107" y="239.021" width="82.5882" height="6.28389" fill="#ee3824"/>
<path fill-rule="evenodd" clip-rule="evenodd" d="M173.516 232.288L175.674 239.021H120.914L123.072 232.288H173.516Z" fill="black" fill-opacity="0.2"/>
</mask>
<g mask="url(#mask0_2169_71943)">
<circle cx="96.2276" cy="151.944" r="83.9348" fill="white" fill-opacity="0.2"/>
</g>
<path d="M0 246H400" stroke="#1D1D1D" stroke-width="4" stroke-linecap="round" stroke-linejoin="round"/>
</svg>
