<svg width="14" height="14" viewBox="0 0 14 14" fill="none" xmlns="http://www.w3.org/2000/svg">
<path d="M12.8166 6.27359L7.7271 1.18412C7.32569 0.782704 6.67466 0.782704 6.27325 1.18412C5.87184 1.58553 5.87184 2.23656 6.27325 2.63797L10.6353 7.00001L6.27325 11.362C5.87184 11.7634 5.87184 12.4145 6.27325 12.8159C6.67466 13.2173 7.32569 13.2173 7.7271 12.8159L12.8166 7.72643C13.218 7.32601 13.218 6.675 12.8166 6.27359ZM6.69707 5.9654L2.65648 1.70678C2.25047 1.2794 1.59284 1.2794 1.18683 1.70678C0.780822 2.13416 0.780822 2.82747 1.18683 3.25537L4.49287 6.7397L1.18683 10.224C0.780822 10.6514 0.780822 11.3452 1.18683 11.7726C1.59284 12.2 2.25047 12.2 2.65648 11.7726L6.69707 7.51399C7.10308 7.08661 7.10308 6.3933 6.69707 5.9654Z" fill="currentColor"/>
</svg>
