<svg width="25" height="24" viewBox="0 0 25 24" fill="none" xmlns="http://www.w3.org/2000/svg">
<path d="M19.3984 5.62343V4.41214C19.3984 4.20882 19.4825 4.01382 19.6323 3.87005C19.782 3.72627 19.9852 3.6455 20.197 3.6455C20.4088 3.6455 20.6119 3.72627 20.7617 3.87005C20.9114 4.01382 20.9956 4.20882 20.9956 4.41214V7.98315C20.9956 8.18647 20.9114 8.38147 20.7617 8.52524C20.6119 8.66902 20.4088 8.74979 20.197 8.74979H16.4786C16.2668 8.74979 16.0637 8.66902 15.9139 8.52524C15.7642 8.38147 15.68 8.18647 15.68 7.98315C15.68 7.77982 15.7642 7.58483 15.9139 7.44105C16.0637 7.29728 16.2668 7.21651 16.4786 7.21651H18.7994C17.9015 6.27744 16.7739 5.5681 15.5186 5.15269C14.2632 4.73727 12.9198 4.62889 11.6099 4.83734C10.2999 5.0458 9.06478 5.56451 8.01623 6.34655C6.96767 7.12859 6.13879 8.14927 5.60459 9.31623C5.07038 10.4832 4.84772 11.7596 4.95674 13.03C5.06576 14.3003 5.50302 15.5246 6.22896 16.5919C6.95491 17.6592 7.94662 18.5359 9.11435 19.1426C10.2821 19.7494 11.589 20.0671 12.9168 20.0669C13.9656 20.0669 15.0041 19.8686 15.973 19.4833C16.9419 19.0981 17.8223 18.5334 18.5639 17.8215C19.3054 17.1096 19.8937 16.2645 20.295 15.3343C20.6964 14.4042 20.9029 13.4073 20.9029 12.4005H22.5002C22.5002 14.8404 21.4905 17.1804 19.6933 18.9057C17.896 20.6309 15.4585 21.6002 12.9168 21.6002C10.3752 21.6002 7.93761 20.6309 6.14039 18.9057C4.34317 17.1804 3.3335 14.8404 3.3335 12.4005C3.33336 10.6143 3.8749 8.86673 4.89202 7.37102C5.90913 5.87531 7.35783 4.69619 9.06129 3.97757C10.7647 3.25895 12.6493 3.03192 14.4849 3.32419C16.3205 3.61645 18.0278 4.41537 19.3984 5.62343V5.62343Z" fill="#1D1D1D"/>
</svg>
