<svg width="33" height="32" viewBox="0 0 33 32" fill="none" xmlns="http://www.w3.org/2000/svg">
<path d="M29.0803 3.44248C28.4134 2.75797 27.4263 2.50295 26.506 2.77139L5.04383 9.01254C4.07277 9.28231 3.38449 10.0568 3.19908 11.0406C3.00967 12.0418 3.67127 13.3129 4.53562 13.8444L11.2464 17.9689C11.9347 18.3917 12.823 18.2857 13.3926 17.7112L21.0771 9.97891C21.4639 9.57625 22.1042 9.57625 22.491 9.97891C22.8778 10.3681 22.8778 10.999 22.491 11.4016L14.7932 19.1353C14.2223 19.7084 14.1155 20.6009 14.5357 21.2935L18.6361 28.0715C19.1163 28.8768 19.9433 29.3332 20.8503 29.3332C20.957 29.3332 21.0771 29.3332 21.1838 29.3197C22.2242 29.1855 23.0512 28.4742 23.358 27.4675L29.7206 6.03289C30.0007 5.12021 29.7473 4.12699 29.0803 3.44248Z" fill="#383C4A"/>
</svg>
