<svg width="100" height="100" viewBox="0 0 100 100" fill="none" xmlns="http://www.w3.org/2000/svg">
<g clip-path="url(#clip0_1166_11643)">
<rect y="39.0002" width="100" height="48" rx="13" fill="white"/>
<path d="M71.933 57.3684H69.8877V67.7055H71.933C73.1909 67.7055 73.9326 66.947 73.9326 65.4188V59.598C73.9326 58.0698 73.1909 57.3684 71.933 57.3684Z" fill="#464E5F"/>
<path d="M43.1346 57.3508C41.8767 57.3508 41.1235 58.0478 41.1235 59.598V65.5531C41.1235 67.1041 41.8767 67.8002 43.1346 67.8002C44.3934 67.8002 45.1685 67.1041 45.1685 65.5531V59.598C45.1685 58.0478 44.3934 57.3508 43.1346 57.3508Z" fill="#464E5F"/>
<path d="M89.5503 38.4921H86.1681L57.0293 11.2291C57.5797 10.1512 57.8659 8.95826 57.865 7.74777C57.8624 3.46583 54.3889 -0.00238779 50.107 0.000245639C45.825 0.00287907 42.3568 3.47636 42.3594 7.7583C42.3586 8.96441 42.6456 10.1538 43.1951 11.2274L14.0563 38.4921H10.6741C4.85076 38.4921 0 43.2866 0 49.11V76.3009C0 82.1252 4.85076 86.8065 10.6741 86.8065H89.5503C92.333 86.8118 95.0024 85.7049 96.9651 83.7316C98.927 81.7592 100.02 79.0836 99.9997 76.3009V49.11C99.9997 43.2866 95.3737 38.4921 89.5503 38.4921ZM28.1793 70.9472C25.2361 70.9472 22.7642 69.5094 22.7642 68.0259C22.7642 67.2622 23.4383 66.1386 24.2924 66.1386C25.3484 66.1386 26.0226 67.8011 28.1126 67.8011C29.1458 67.8011 30.2922 67.3965 30.2922 66.3177C30.2922 63.5991 23.1688 64.0705 23.1688 58.8124C23.1688 55.4416 26.1121 54.1609 28.9211 54.1609C30.1123 54.1609 33.3935 54.3856 33.3935 56.1386C33.3935 56.7452 32.9888 57.9811 31.9996 57.9811C31.1911 57.9811 30.7636 57.127 28.9211 57.127C27.3261 57.127 26.6739 57.7784 26.6739 58.4753C26.6739 60.7225 33.7973 60.2959 33.7973 65.9586C33.7973 69.1942 31.4378 70.9472 28.1793 70.9472ZM48.5392 65.554C48.5392 69.4189 46.1235 70.8577 43.0222 70.8577C39.9209 70.8577 37.528 69.4189 37.528 65.554V59.5989C37.528 55.7339 39.9209 54.2952 43.0222 54.2952C46.1235 54.2952 48.5392 55.7339 48.5392 59.5989V65.554ZM61.7528 70.6268H54.6514C53.8877 70.6268 53.0336 70.3626 53.0336 69.6437V55.3521C53.0336 54.6104 53.9553 54.2952 54.8313 54.2952C55.7074 54.2952 56.6291 54.6104 56.6291 55.3521V67.7055H61.7528C62.427 67.7055 62.764 68.4025 62.764 69.1661C62.764 69.9307 62.427 70.6268 61.7528 70.6268ZM77.5279 65.4188C77.5279 69.2838 75.0331 70.6268 71.9327 70.6268H67.9545C67.0337 70.6268 66.5167 70.2283 66.5167 69.6665V55.3521C66.5167 54.7903 67.0337 54.2232 67.9545 54.2232H71.9327C75.0331 54.2232 77.5279 55.7339 77.5279 59.5989V65.4188ZM18.6578 38.4921L45.1631 13.6967C48.0239 16.1054 52.204 16.1019 55.0613 13.6896L81.5667 38.4921H18.6578Z" fill="#464E5F"/>
</g>
<defs>
<clipPath id="clip0_1166_11643">
<rect width="100" height="100" fill="white"/>
</clipPath>
</defs>
</svg>
