<svg width="31" height="32" viewBox="0 0 31 32" fill="none" xmlns="http://www.w3.org/2000/svg">
<g clip-path="url(#clip0_1655_29974)">
<path d="M8.3614 27.7936C9.2908 28.753 10.7995 28.753 11.7289 27.7936L23.2572 15.8934C23.5882 15.5517 23.8429 15.1443 24.0084 14.7106C25.1669 15.0457 26.2937 15.2231 27.2867 15.2165C29.7439 15.2034 30.5587 14.0929 30.8261 13.4292C31.0935 12.7721 31.2844 11.3922 29.5593 9.57855C29.5402 9.55884 29.5211 9.53913 29.502 9.51941C28.4326 8.41547 26.8793 7.39695 25.116 6.64128C24.7914 6.50328 24.4667 6.37843 24.1484 6.26015V6.24044C24.1293 4.78166 22.9899 3.60544 21.5767 3.58572L14.6698 3.48716C13.7532 3.47401 12.8747 3.842 12.2318 4.51225L0.697048 16.4125C-0.232349 17.3719 -0.232349 18.9292 0.697048 19.8886L8.3614 27.7936ZM17.248 7.74522C18.0182 6.95012 19.2659 6.95012 20.0362 7.74522C20.4945 8.21834 20.6791 8.86887 20.59 9.47999C21.3475 10.032 22.2514 10.5445 23.219 10.9585C23.5628 11.103 23.8938 11.2345 24.2121 11.3462L24.1739 8.48118C24.2312 8.50747 24.2821 8.52718 24.3394 8.55346C25.8481 9.204 27.204 10.0845 28.0761 10.9848C28.0888 10.9979 28.1016 11.011 28.1143 11.0242C28.9418 11.8981 29.031 12.4567 28.9609 12.6275C28.7445 13.1598 26.421 13.6329 22.8944 12.115C21.8631 11.6682 20.8955 11.1162 20.1126 10.5182C20.0871 10.5511 20.0553 10.5839 20.0298 10.6168C19.2595 11.4119 18.0119 11.4119 17.2416 10.6168C16.4777 9.82825 16.4777 8.54032 17.248 7.74522Z" fill="black"/>
</g>
<defs>
<clipPath id="clip0_1655_29974">
<rect width="31" height="32" fill="white"/>
</clipPath>
</defs>
</svg>
