<svg width="34" height="34" viewBox="0 0 34 34" fill="none" xmlns="http://www.w3.org/2000/svg">
<g filter="url(#filter0_i_5402_69977)">
<rect width="34" height="34" rx="17" fill="#34ABF4"/>
<path d="M16 12H18V14H16V12ZM16 16H18V22H16V16ZM17 7C11.48 7 7 11.48 7 17C7 22.52 11.48 27 17 27C22.52 27 27 22.52 27 17C27 11.48 22.52 7 17 7ZM17 25C12.59 25 9 21.41 9 17C9 12.59 12.59 9 17 9C21.41 9 25 12.59 25 17C25 21.41 21.41 25 17 25Z" fill="white"/>
</g>
<defs>
<filter id="filter0_i_5402_69977" x="0" y="0" width="34" height="38" filterUnits="userSpaceOnUse" color-interpolation-filters="sRGB">
<feFlood flood-opacity="0" result="BackgroundImageFix"/>
<feBlend mode="normal" in="SourceGraphic" in2="BackgroundImageFix" result="shape"/>
<feColorMatrix in="SourceAlpha" type="matrix" values="0 0 0 0 0 0 0 0 0 0 0 0 0 0 0 0 0 0 127 0" result="hardAlpha"/>
<feOffset dy="4"/>
<feGaussianBlur stdDeviation="2"/>
<feComposite in2="hardAlpha" operator="arithmetic" k2="-1" k3="1"/>
<feColorMatrix type="matrix" values="0 0 0 0 0.204167 0 0 0 0 0.204167 0 0 0 0 0.204167 0 0 0 0.15 0"/>
<feBlend mode="normal" in2="shape" result="effect1_innerShadow_5402_69977"/>
</filter>
</defs>
</svg>
