<svg width="28" height="22" viewBox="0 0 28 22" fill="none" xmlns="http://www.w3.org/2000/svg">
<path d="M8.78874 22C5.55374 22 2.53817 21.1 0 19.5471C2.15499 19.6805 5.95807 19.3611 8.32358 17.2028C4.76508 17.0467 3.16026 14.4361 2.95094 13.3205C3.25329 13.432 4.6953 13.5659 5.50934 13.2535C1.4159 12.2718 0.787928 8.8357 0.927477 7.78702C1.695 8.3002 2.99745 8.4787 3.50913 8.43408C-0.305207 5.82353 1.06703 1.89655 1.74151 1.04868C4.47882 4.67611 8.5812 6.71342 13.6564 6.82674C13.5607 6.4253 13.5102 6.00736 13.5102 5.57809C13.5102 2.4974 16.1134 0 19.3247 0C21.0025 0 22.5144 0.681765 23.5757 1.77228C24.6969 1.52097 26.3843 0.932674 27.2092 0.423935C26.7934 1.85193 25.4989 3.04316 24.7159 3.48468C24.7224 3.4997 24.7095 3.4696 24.7159 3.48468C25.4037 3.38516 27.2648 3.04305 28 2.56592C27.6364 3.36815 26.264 4.702 25.1377 5.44875C25.3473 14.2886 18.2765 22 8.78874 22Z" fill="#47ACDF"/>
</svg>
