<svg width="16" height="16" viewBox="0 0 16 16" fill="none" xmlns="http://www.w3.org/2000/svg">
<path d="M11.1381 5.52839L8.47144 2.86171C8.47132 2.86158 8.47119 2.86152 8.4711 2.86139C8.45566 2.84599 8.43947 2.83139 8.4226 2.81755C8.41488 2.81121 8.40676 2.80571 8.39882 2.79977C8.38935 2.79268 8.38007 2.78533 8.37019 2.77874C8.36069 2.77239 8.35085 2.76689 8.3411 2.76108C8.33216 2.75574 8.32344 2.75014 8.31426 2.74521C8.30432 2.73989 8.29413 2.73539 8.28397 2.73061C8.27438 2.72608 8.26494 2.7213 8.25513 2.71721C8.24529 2.71314 8.23522 2.70983 8.22522 2.70627C8.21469 2.70249 8.20432 2.69846 8.19357 2.69521C8.18357 2.69218 8.17338 2.68996 8.16329 2.68743C8.15232 2.68464 8.14147 2.68158 8.13032 2.67936C8.1186 2.67705 8.10679 2.67564 8.09501 2.67396C8.08529 2.67258 8.07572 2.67071 8.06585 2.66974C8.0221 2.66543 7.97801 2.66543 7.93426 2.66974C7.92441 2.67071 7.91485 2.67255 7.9051 2.67396C7.89332 2.67564 7.88147 2.67702 7.86979 2.67936C7.8586 2.68158 7.84779 2.68464 7.83682 2.68743C7.82669 2.68996 7.81654 2.69218 7.80654 2.69521C7.79579 2.69846 7.78538 2.70249 7.77488 2.70627C7.76488 2.70986 7.75482 2.71314 7.74498 2.71721C7.73513 2.72127 7.72572 2.72608 7.71613 2.73061C7.70601 2.73539 7.69579 2.73989 7.68585 2.74521C7.67666 2.75014 7.66794 2.75574 7.65901 2.76108C7.64926 2.76689 7.63941 2.77239 7.62991 2.77874C7.62004 2.78533 7.61079 2.79268 7.60129 2.79977C7.59335 2.80571 7.58522 2.81121 7.57751 2.81755C7.56063 2.83139 7.54441 2.84599 7.52901 2.86139C7.52888 2.86152 7.52876 2.86158 7.52866 2.86171L4.86201 5.52836C4.60166 5.78871 4.60166 6.21083 4.86201 6.47118C5.12235 6.73152 5.54447 6.73152 5.80482 6.47118L7.33341 4.94258V12.6665C7.33341 13.0346 7.63188 13.3331 8.00007 13.3331C8.36826 13.3331 8.66673 13.0346 8.66673 12.6665V4.94261L10.1953 6.47121C10.4557 6.73155 10.8778 6.73155 11.1381 6.47121C11.3984 6.21083 11.3984 5.78874 11.1381 5.52839Z" fill="#464E5F"/>
</svg>
