<svg width="14" height="14" viewBox="0 0 14 14" fill="none" xmlns="http://www.w3.org/2000/svg">
<path d="M3.06241 5.68752H10.9374C11.0239 5.6875 11.1085 5.66183 11.1804 5.61375C11.2523 5.56568 11.3084 5.49736 11.3415 5.41743C11.3746 5.3375 11.3833 5.24954 11.3664 5.16469C11.3495 5.07984 11.3079 5.00189 11.2467 4.9407L7.30922 1.0032C7.26861 0.96256 7.2204 0.930318 7.16732 0.90832C7.11425 0.886323 7.05736 0.875 6.99991 0.875C6.94245 0.875 6.88557 0.886323 6.83249 0.90832C6.77942 0.930318 6.7312 0.96256 6.69059 1.0032L2.75309 4.9407C2.69193 5.00189 2.65027 5.07984 2.6334 5.16469C2.61653 5.24954 2.62519 5.3375 2.6583 5.41743C2.6914 5.49736 2.74746 5.56568 2.81939 5.61375C2.89132 5.66183 2.97589 5.6875 3.06241 5.68752Z" fill="#666666"/>
<path d="M10.9374 8.3125H3.06241C2.97589 8.31252 2.89132 8.33819 2.81939 8.38626C2.74746 8.43434 2.6914 8.50266 2.6583 8.58259C2.62519 8.66252 2.61653 8.75047 2.6334 8.83533C2.65027 8.92018 2.69193 8.99813 2.75309 9.05931L6.69059 12.9968C6.7312 13.0375 6.77942 13.0697 6.8325 13.0917C6.88557 13.1137 6.94246 13.125 6.99991 13.125C7.05736 13.125 7.11424 13.1137 7.16732 13.0917C7.22039 13.0697 7.26861 13.0375 7.30922 12.9968L11.2467 9.05931C11.3079 8.99813 11.3495 8.92018 11.3664 8.83533C11.3833 8.75047 11.3746 8.66252 11.3415 8.58259C11.3084 8.50266 11.2523 8.43434 11.1804 8.38626C11.1085 8.33819 11.0239 8.31252 10.9374 8.3125Z" fill="#666666"/>
</svg>
