<svg xmlns="http://www.w3.org/2000/svg" viewBox="0 0 32 32" xml:space="preserve" enable-background="new 0 0 32 32"><path d="M29.4 12s0 .1 0 0c-.2.3-.3.4-.5.6l-6.1 6.1c-2 .6-3.6 2.2-4.2 4.2l-1.9 1.9c-.3.3-.7.6-1.1.8-1.2.5-2.6.3-3.5-.6L7 19.9c-.9-.9-1.1-2.3-.6-3.5h0c.2-.4.4-.8.8-1.1l1.9-1.9L19.4 3c.2-.2.3-.3.5-.4l.1-.1c.9-.6 2-.7 3-.4.4.1.8.4 1.1.7l5.1 5.1c.3.3.5.7.7 1.1.3 1 .1 2.1-.5 3z" fill="none" stroke="#ee3824" stroke-linecap="round" stroke-linejoin="round" stroke-miterlimit="10" class="stroke-000000"></path><path d="M29.9 9c-.1-.4-.4-.8-.7-1.1l-5.1-5.1c-.3-.3-.7-.5-1.1-.7L31 1l-1.1 8zM12.2 24.9l-3.4 1.9s-.8-3.4-3.7-3.7L7 19.7l5.2 5.2zM19.5 27.9c-1.3 1.5-3.1 3.1-3.1 3.1l.3-1.3c.3-1.5 0-3-.9-4.2h0c.4-.2.8-.4 1.1-.8l1.9-1.9c-.2.5-.2 1.1-.2 1.7-.1 1.3.2 2.4.9 3.4zM6.5 16.3h0c-1.2-.9-2.8-1.2-4.2-.9l-1.3.3s1.7-1.9 3.2-3.2c1.6-1.3 5 .8 5 .8l-1.9 1.9c-.3.3-.6.7-.8 1.1zM26.3 22.4h-2.1c-.6 0-1.1.5-1.1 1.1h0c0 .6.5 1.1 1.1 1.1h1M25.2 24.6c.6 0 1.1.5 1.1 1.1h0c0 .6-.5 1.1-1.1 1.1h-2.1M25 21.2v1.2M25 26.8V28" fill="none" stroke="#ee3824" stroke-linecap="round" stroke-linejoin="round" stroke-miterlimit="10" class="stroke-000000"></path><circle cx="24.6" cy="24.5" r="6.1" fill="none" stroke="#ee3824" stroke-linecap="round" stroke-linejoin="round" stroke-miterlimit="10" class="stroke-000000"></circle><circle cx="21.7" cy="10.3" r="3" fill="none" stroke="#ee3824" stroke-linecap="round" stroke-linejoin="round" stroke-miterlimit="10" class="stroke-000000"></circle><circle cx="14.5" cy="17.5" r="3" fill="none" stroke="#ee3824" stroke-linecap="round" stroke-linejoin="round" stroke-miterlimit="10" class="stroke-000000"></circle></svg>