<svg width="28" height="28" viewBox="0 0 28 28" fill="none" xmlns="http://www.w3.org/2000/svg">
<path d="M10.0604 14.3926V19.0738" stroke="#130F26" stroke-width="1.5" stroke-linecap="round" stroke-linejoin="round"/>
<path d="M12.4488 16.7336H7.67236" stroke="#130F26" stroke-width="1.5" stroke-linecap="round" stroke-linejoin="round"/>
<path d="M18.2077 14.5348H18.0739" stroke="#130F26" stroke-width="1.5" stroke-linecap="round" stroke-linejoin="round"/>
<path d="M20.4745 19.0031H20.3408" stroke="#130F26" stroke-width="1.5" stroke-linecap="round" stroke-linejoin="round"/>
<path d="M9.09021 1.5C9.09021 2.4256 9.85581 3.17595 10.8002 3.17595H12.1208C13.5779 3.18115 14.7581 4.33783 14.7647 5.76583V6.60964" stroke="#130F26" stroke-width="1.5" stroke-linecap="round" stroke-linejoin="round"/>
<path fill-rule="evenodd" clip-rule="evenodd" d="M19.5354 26.4533C15.7789 26.5169 12.0913 26.5143 8.46593 26.4533C4.44188 26.4533 1.5 23.583 1.5 19.6392V13.8272C1.5 9.88333 4.44188 7.01305 8.46593 7.01305C12.1112 6.95073 15.8014 6.95203 19.5354 7.01305C23.5594 7.01305 26.5 9.88462 26.5 13.8272V19.6392C26.5 23.583 23.5594 26.4533 19.5354 26.4533Z" stroke="#130F26" stroke-width="1.5" stroke-linecap="round" stroke-linejoin="round"/>
</svg>
