<svg width="30" height="30" viewBox="0 0 30 30" fill="none" xmlns="http://www.w3.org/2000/svg">
<path d="M11.0604 15.3926V20.0738" stroke="currentColor" stroke-width="1.5" stroke-linecap="round" stroke-linejoin="round"/>
<path d="M13.4488 17.7333H8.67236" stroke="currentColor" stroke-width="1.5" stroke-linecap="round" stroke-linejoin="round"/>
<path d="M19.2077 15.5351H19.0739" stroke="currentColor" stroke-width="1.5" stroke-linecap="round" stroke-linejoin="round"/>
<path d="M21.4745 20.0033H21.3408" stroke="currentColor" stroke-width="1.5" stroke-linecap="round" stroke-linejoin="round"/>
<path d="M10.0902 2.5C10.0902 3.4256 10.8558 4.17595 11.8002 4.17595H13.1208C14.5779 4.18115 15.7581 5.33783 15.7647 6.76583V7.60964" stroke="currentColor" stroke-width="1.5" stroke-linecap="round" stroke-linejoin="round"/>
<path fill-rule="evenodd" clip-rule="evenodd" d="M20.5354 27.4533C16.7789 27.5169 13.0913 27.5143 9.46593 27.4533C5.44188 27.4533 2.5 24.583 2.5 20.6392V14.8272C2.5 10.8833 5.44188 8.01305 9.46593 8.01305C13.1112 7.95073 16.8014 7.95203 20.5354 8.01305C24.5594 8.01305 27.5 10.8846 27.5 14.8272V20.6392C27.5 24.583 24.5594 27.4533 20.5354 27.4533Z" stroke="currentColor" stroke-width="1.5" stroke-linecap="round" stroke-linejoin="round"/>
</svg>
