<svg width="30" height="30" viewBox="0 0 30 30" fill="none" xmlns="http://www.w3.org/2000/svg">
<path d="M11.4185 25.9667V22.1446C11.4185 21.1689 12.2152 20.3779 13.198 20.3779H16.7908C17.2627 20.3779 17.7154 20.5641 18.0491 20.8954C18.3828 21.2267 18.5703 21.676 18.5703 22.1446V25.9667C18.5674 26.3724 18.7276 26.7624 19.0155 27.0503C19.3033 27.3382 19.6951 27.5001 20.1037 27.5H22.5548C23.6995 27.503 24.7984 27.0536 25.609 26.2511C26.4195 25.4485 26.875 24.3588 26.875 23.2223V12.3336C26.875 11.4156 26.4651 10.5449 25.7558 9.9559L17.4175 3.3449C15.9671 2.18576 13.8889 2.22319 12.4817 3.43378L4.33377 9.9559C3.59093 10.5275 3.14694 11.4009 3.125 12.3336V23.2112C3.125 25.5799 5.05923 27.5 7.44522 27.5H9.84036C10.689 27.5001 11.3787 26.8203 11.3849 25.9778L11.4185 25.9667Z" fill="currentColor"/>
</svg>
