<svg width="24" height="24" viewBox="0 0 24 24" fill="none" xmlns="http://www.w3.org/2000/svg">
<path fill-rule="evenodd" clip-rule="evenodd" d="M0.75 5.125C0.75 1.84348 0.785137 0.75 5.125 0.75C9.46486 0.75 9.5 1.84348 9.5 5.125C9.5 8.40652 9.51384 9.5 5.125 9.5C0.736159 9.5 0.75 8.40652 0.75 5.125Z" stroke="#130F26" stroke-width="1.5" stroke-linecap="round" stroke-linejoin="round"/>
<path fill-rule="evenodd" clip-rule="evenodd" d="M14.5 5.125C14.5 1.84348 14.5351 0.75 18.875 0.75C23.2149 0.75 23.25 1.84348 23.25 5.125C23.25 8.40652 23.2638 9.5 18.875 9.5C14.4862 9.5 14.5 8.40652 14.5 5.125Z" stroke="#130F26" stroke-width="1.5" stroke-linecap="round" stroke-linejoin="round"/>
<path fill-rule="evenodd" clip-rule="evenodd" d="M0.75 18.875C0.75 15.5935 0.785137 14.5 5.125 14.5C9.46486 14.5 9.5 15.5935 9.5 18.875C9.5 22.1565 9.51384 23.25 5.125 23.25C0.736159 23.25 0.75 22.1565 0.75 18.875Z" stroke="#130F26" stroke-width="1.5" stroke-linecap="round" stroke-linejoin="round"/>
<path fill-rule="evenodd" clip-rule="evenodd" d="M14.5 18.875C14.5 15.5935 14.5351 14.5 18.875 14.5C23.2149 14.5 23.25 15.5935 23.25 18.875C23.25 22.1565 23.2638 23.25 18.875 23.25C14.4862 23.25 14.5 22.1565 14.5 18.875Z" stroke="#130F26" stroke-width="1.5" stroke-linecap="round" stroke-linejoin="round"/>
</svg>
