<svg width="30" height="30" viewBox="0 0 30 30" fill="none" xmlns="http://www.w3.org/2000/svg">
<path fill-rule="evenodd" clip-rule="evenodd" d="M3.75 8.12506C3.75 4.84354 3.78514 3.75006 8.125 3.75006C12.4649 3.75006 12.5 4.84354 12.5 8.12506C12.5 11.4066 12.5138 12.5001 8.125 12.5001C3.73616 12.5001 3.75 11.4066 3.75 8.12506Z" stroke="currentColor" stroke-width="1.5" stroke-linecap="round" stroke-linejoin="round"/>
<path fill-rule="evenodd" clip-rule="evenodd" d="M17.5 8.12506C17.5 4.84354 17.5351 3.75006 21.875 3.75006C26.2149 3.75006 26.25 4.84354 26.25 8.12506C26.25 11.4066 26.2638 12.5001 21.875 12.5001C17.4862 12.5001 17.5 11.4066 17.5 8.12506Z" stroke="currentColor" stroke-width="1.5" stroke-linecap="round" stroke-linejoin="round"/>
<path fill-rule="evenodd" clip-rule="evenodd" d="M3.75 21.8751C3.75 18.5935 3.78514 17.5001 8.125 17.5001C12.4649 17.5001 12.5 18.5935 12.5 21.8751C12.5 25.1566 12.5138 26.2501 8.125 26.2501C3.73616 26.2501 3.75 25.1566 3.75 21.8751Z" stroke="currentColor" stroke-width="1.5" stroke-linecap="round" stroke-linejoin="round"/>
<path fill-rule="evenodd" clip-rule="evenodd" d="M17.5 21.8751C17.5 18.5935 17.5351 17.5001 21.875 17.5001C26.2149 17.5001 26.25 18.5935 26.25 21.8751C26.25 25.1566 26.2638 26.2501 21.875 26.2501C17.4862 26.2501 17.5 25.1566 17.5 21.8751Z" stroke="currentColor" stroke-width="1.5" stroke-linecap="round" stroke-linejoin="round"/>
</svg>
