<svg width="26" height="20" viewBox="0 0 26 20" fill="none" xmlns="http://www.w3.org/2000/svg">
<path d="M18.9375 2.12484e-08C19.6502 -8.75273e-05 20.3363 0.270369 20.8572 0.756711C21.3781 1.24305 21.695 1.90901 21.7438 2.62L21.75 2.8125V16.875C21.7497 17.0312 21.8079 17.1818 21.9131 17.2972C22.0184 17.4126 22.163 17.4845 22.3185 17.4986C22.4741 17.5127 22.6293 17.4681 22.7535 17.3735C22.8778 17.2789 22.9622 17.1412 22.99 16.9875L23 16.875V3.7675C23.6524 3.84045 24.2588 4.13933 24.714 4.61236C25.1692 5.08538 25.4446 5.70276 25.4925 6.3575L25.5 6.5625V15.9375C25.5001 16.9752 25.1031 17.9735 24.3904 18.7278C23.6778 19.482 22.7035 19.935 21.6675 19.9938L21.4375 20H4.5625C3.52483 20.0001 2.52646 19.6031 1.77221 18.8904C1.01796 18.1778 0.564998 17.2035 0.50625 16.1675L0.5 15.9375V2.8125C0.499912 2.09984 0.770369 1.41372 1.25671 0.892808C1.74305 0.371893 2.40901 0.0550276 3.12 0.00625016L3.3125 2.12484e-08H18.9375ZM9.56 8.75H5.185C4.93636 8.75 4.6979 8.84877 4.52209 9.02459C4.34627 9.2004 4.2475 9.43886 4.2475 9.6875V14.0625C4.2475 14.58 4.6675 15 5.185 15H9.56C9.80864 15 10.0471 14.9012 10.2229 14.7254C10.3987 14.5496 10.4975 14.3111 10.4975 14.0625V9.6875C10.4975 9.43886 10.3987 9.2004 10.2229 9.02459C10.0471 8.84877 9.80864 8.75 9.56 8.75ZM17.065 13.125H13.9425L13.815 13.1337C13.5797 13.1661 13.3654 13.2866 13.2155 13.4709C13.0656 13.6551 12.9913 13.8894 13.0075 14.1264C13.0237 14.3634 13.1292 14.5854 13.3028 14.7475C13.4763 14.9097 13.705 14.9999 13.9425 15H17.065L17.1925 14.9913C17.4278 14.9589 17.6421 14.8384 17.792 14.6541C17.9419 14.4699 18.0162 14.2356 18 13.9986C17.9838 13.7616 17.8783 13.5396 17.7047 13.3775C17.5312 13.2153 17.3025 13.1251 17.065 13.125ZM8.6225 10.625V13.125H6.1225V10.625H8.6225ZM17.0625 8.75L13.94 8.75625L13.8125 8.76375C13.5749 8.79382 13.3578 8.91368 13.2058 9.09874C13.0538 9.2838 12.9783 9.52002 12.995 9.75893C13.0116 9.99785 13.119 10.2213 13.2952 10.3835C13.4714 10.5458 13.703 10.6344 13.9425 10.6313L17.0662 10.625L17.1925 10.6163C17.4279 10.5839 17.6423 10.4633 17.7922 10.2789C17.9421 10.0945 18.0163 9.86005 18 9.62298C17.9836 9.3859 17.8779 9.16389 17.7041 9.00183C17.5303 8.83976 17.3014 8.74975 17.0638 8.75H17.0625ZM17.0638 4.38H5.185L5.0575 4.38875C4.82219 4.42113 4.60794 4.54162 4.45804 4.72588C4.30814 4.91014 4.23378 5.14442 4.24997 5.3814C4.26616 5.61838 4.3717 5.84037 4.54526 6.00253C4.71882 6.16469 4.94747 6.25493 5.185 6.255H17.065L17.1925 6.2475C17.4298 6.2174 17.6467 6.0977 17.7986 5.91293C17.9506 5.72815 18.0262 5.49227 18.0099 5.25359C17.9936 5.01492 17.8866 4.7915 17.711 4.62909C17.5353 4.46668 17.3042 4.37757 17.065 4.38H17.0638Z" fill="#ee3824"/>
</svg>
