<svg width="34" height="27" viewBox="0 0 34 27" fill="none" xmlns="http://www.w3.org/2000/svg">
<path d="M6.3125 7.875C5.99756 7.875 5.69551 8.00011 5.47281 8.22281C5.25011 8.44551 5.125 8.74756 5.125 9.0625C5.125 9.37744 5.25011 9.67949 5.47281 9.90219C5.69551 10.1249 5.99756 10.25 6.3125 10.25H22.9375C23.2524 10.25 23.5545 10.1249 23.7772 9.90219C23.9999 9.67949 24.125 9.37744 24.125 9.0625C24.125 8.74756 23.9999 8.44551 23.7772 8.22281C23.5545 8.00011 23.2524 7.875 22.9375 7.875H6.3125ZM6.3125 12.625C5.99756 12.625 5.69551 12.7501 5.47281 12.9728C5.25011 13.1955 5.125 13.4976 5.125 13.8125V18.5625C5.125 18.8774 5.25011 19.1795 5.47281 19.4022C5.69551 19.6249 5.99756 19.75 6.3125 19.75H11.0625C11.3774 19.75 11.6795 19.6249 11.9022 19.4022C12.1249 19.1795 12.25 18.8774 12.25 18.5625V13.8125C12.25 13.4976 12.1249 13.1955 11.9022 12.9728C11.6795 12.7501 11.3774 12.625 11.0625 12.625H6.3125ZM7.5 17.375V15H9.875V17.375H7.5ZM15.8125 12.625C15.4976 12.625 15.1955 12.7501 14.9728 12.9728C14.7501 13.1955 14.625 13.4976 14.625 13.8125C14.625 14.1274 14.7501 14.4295 14.9728 14.6522C15.1955 14.8749 15.4976 15 15.8125 15H22.9375C23.2524 15 23.5545 14.8749 23.7772 14.6522C23.9999 14.4295 24.125 14.1274 24.125 13.8125C24.125 13.4976 23.9999 13.1955 23.7772 12.9728C23.5545 12.7501 23.2524 12.625 22.9375 12.625H15.8125ZM15.8125 17.375C15.4976 17.375 15.1955 17.5001 14.9728 17.7228C14.7501 17.9455 14.625 18.2476 14.625 18.5625C14.625 18.8774 14.7501 19.1795 14.9728 19.4022C15.1955 19.6249 15.4976 19.75 15.8125 19.75H22.9375C23.2524 19.75 23.5545 19.6249 23.7772 19.4022C23.9999 19.1795 24.125 18.8774 24.125 18.5625C24.125 18.2476 23.9999 17.9455 23.7772 17.7228C23.5545 17.5001 23.2524 17.375 22.9375 17.375H15.8125ZM0.375 5.5C0.375 4.24022 0.875445 3.03204 1.76624 2.14124C2.65704 1.25044 3.86522 0.75 5.125 0.75H24.125C25.3848 0.75 26.593 1.25044 27.4838 2.14124C28.3746 3.03204 28.875 4.24022 28.875 5.5C30.1348 5.5 31.343 6.00044 32.2338 6.89124C33.1246 7.78204 33.625 8.99022 33.625 10.25V20.9375C33.625 22.5122 32.9994 24.0224 31.8859 25.1359C30.7724 26.2494 29.2622 26.875 27.6875 26.875H6.3125C4.73778 26.875 3.22755 26.2494 2.11405 25.1359C1.00056 24.0224 0.375 22.5122 0.375 20.9375V5.5ZM27.6875 20.9375C27.3726 20.9375 27.0705 20.8124 26.8478 20.5897C26.6251 20.367 26.5 20.0649 26.5 19.75V5.5C26.5 4.87011 26.2498 4.26602 25.8044 3.82062C25.359 3.37522 24.7549 3.125 24.125 3.125H5.125C4.49511 3.125 3.89102 3.37522 3.44562 3.82062C3.00022 4.26602 2.75 4.87011 2.75 5.5V20.9375C2.75 21.8823 3.12533 22.7885 3.79343 23.4566C4.46153 24.1247 5.36767 24.5 6.3125 24.5H27.6875C28.6323 24.5 29.5385 24.1247 30.2066 23.4566C30.8747 22.7885 31.25 21.8823 31.25 20.9375V10.25C31.25 9.62011 30.9998 9.01602 30.5544 8.57062C30.109 8.12522 29.5049 7.875 28.875 7.875V19.75C28.875 20.0649 28.7499 20.367 28.5272 20.5897C28.3045 20.8124 28.0024 20.9375 27.6875 20.9375Z" fill="#130F26"/>
</svg>
