<svg width="30" height="30" viewBox="0 0 30 30" fill="none" xmlns="http://www.w3.org/2000/svg">
<path fill-rule="evenodd" clip-rule="evenodd" d="M2.49988 15.0002C2.49988 8.10024 8.08738 2.50024 14.9999 2.50024C21.8999 2.50024 27.4999 8.10024 27.4999 15.0002C27.4999 21.9127 21.8999 27.5002 14.9999 27.5002C8.08738 27.5002 2.49988 21.9127 2.49988 15.0002ZM17.7874 17.2877L19.8124 10.8877C19.9499 10.4502 19.5499 10.0377 19.1124 10.1752L12.7124 12.1752C12.4499 12.2627 12.2374 12.4627 12.1624 12.7252L10.1624 19.1377C10.0249 19.5627 10.4374 19.9752 10.8624 19.8377L17.2374 17.8377C17.4999 17.7627 17.7124 17.5502 17.7874 17.2877Z" fill="#ee3824"/>
</svg>
