<svg width="24" height="24" viewBox="0 0 24 24" fill="none" xmlns="http://www.w3.org/2000/svg">
<path fill-rule="evenodd" clip-rule="evenodd" d="M20.3991 9.14599L21.1193 9.86599C21.6895 10.426 21.9996 11.186 21.9996 11.986C22.0096 12.786 21.6995 13.547 21.1393 14.116C21.1327 14.1233 21.126 14.1298 21.1193 14.1362C21.116 14.1394 21.1127 14.1427 21.1093 14.146L20.3991 14.856C20.119 15.136 19.9589 15.516 19.9589 15.917V16.946C19.9589 18.606 18.6084 19.957 16.9478 19.957H15.9174C15.5173 19.957 15.1372 20.116 14.8571 20.396L14.1368 21.116C13.5466 21.707 12.7763 21.996 12.006 21.996C11.2357 21.996 10.4655 21.707 9.87525 21.127L9.14498 20.396C8.86488 20.116 8.48474 19.957 8.0846 19.957H7.05423C5.39362 19.957 4.04313 18.606 4.04313 16.946V15.917C4.04313 15.516 3.88308 15.136 3.60298 14.846L2.88271 14.136C1.71229 12.967 1.70229 11.056 2.87271 9.87699L3.60298 9.14599C3.88308 8.86599 4.04313 8.48599 4.04313 8.07599V7.05599C4.04313 5.39599 5.39362 4.04699 7.05423 4.04699H8.0846C8.48474 4.04699 8.86488 3.88599 9.14498 3.60599L9.86524 2.88599C11.0357 1.70699 12.9464 1.70699 14.1268 2.87699L14.8571 3.60599C15.1372 3.88599 15.5173 4.04699 15.9174 4.04699H16.9478C18.6084 4.04699 19.9589 5.39599 19.9589 7.05599V8.08699C19.9589 8.48599 20.119 8.86599 20.3991 9.14599ZM11.4301 14.9902L16.1801 10.2402C16.5201 9.90024 16.5201 9.35024 16.1801 9.00024C15.8401 8.66024 15.2801 8.66024 14.9401 9.00024L10.8101 13.1302L9.06006 11.3802C8.72006 11.0402 8.16006 11.0402 7.82006 11.3802C7.48006 11.7202 7.48006 12.2702 7.82006 12.6202L10.2001 14.9902C10.3701 15.1602 10.5901 15.2402 10.8101 15.2402C11.0401 15.2402 11.2601 15.1602 11.4301 14.9902Z" fill="#ee3824"/>
</svg>
