<svg width="22" height="17" viewBox="0 0 22 17" fill="none" xmlns="http://www.w3.org/2000/svg">
<path d="M18.1384 1.8584C16.7863 1.24864 15.337 0.797946 13.8214 0.54167C13.8079 0.539078 13.794 0.540748 13.7815 0.546448C13.769 0.552148 13.7585 0.561596 13.7516 0.573483C13.5661 0.899572 13.3593 1.32464 13.2143 1.66045C11.6069 1.42029 9.9728 1.42029 8.36541 1.66045C8.20399 1.28828 8.02196 0.925398 7.82016 0.573483C7.81332 0.561449 7.80298 0.551788 7.7905 0.545788C7.77803 0.539788 7.76402 0.537734 7.75035 0.539902C6.23567 0.796178 4.78638 1.24687 3.43342 1.85752C3.42178 1.8624 3.41192 1.87072 3.40514 1.88138C0.655036 5.92435 -0.098769 9.86747 0.271506 13.7611C0.272536 13.7706 0.275496 13.7799 0.280206 13.7882C0.284916 13.7966 0.291276 13.8039 0.298901 13.8097C1.90407 14.9783 3.69442 15.8686 5.59498 16.4432C5.60823 16.4472 5.6224 16.4472 5.63564 16.4431C5.64888 16.439 5.66058 16.431 5.66921 16.4202C6.07819 15.8732 6.4406 15.293 6.75264 14.6855C6.75697 14.6772 6.75947 14.668 6.75996 14.6587C6.76045 14.6493 6.75893 14.64 6.75549 14.6312C6.75206 14.6225 6.74679 14.6147 6.74005 14.6081C6.7333 14.6016 6.72524 14.5967 6.71641 14.5936C6.14554 14.3786 5.5924 14.1191 5.0621 13.8177C5.05257 13.8122 5.04454 13.8045 5.03873 13.7952C5.03292 13.7859 5.02952 13.7753 5.02882 13.7643C5.02812 13.7534 5.03014 13.7424 5.03472 13.7325C5.0393 13.7225 5.04628 13.7138 5.05503 13.7072C5.16638 13.625 5.27773 13.5393 5.38377 13.4536C5.39332 13.4459 5.40482 13.441 5.41699 13.4394C5.42916 13.4378 5.44152 13.4397 5.4527 13.4447C8.92304 15.0036 12.6815 15.0036 16.1111 13.4447C16.1224 13.4394 16.1348 13.4373 16.1472 13.4387C16.1595 13.4401 16.1712 13.4449 16.181 13.4527C16.287 13.5393 16.3975 13.625 16.5097 13.7072C16.5185 13.7137 16.5256 13.7222 16.5304 13.7321C16.5351 13.742 16.5373 13.7529 16.5367 13.7639C16.5362 13.7748 16.533 13.7854 16.5273 13.7948C16.5217 13.8042 16.5138 13.8121 16.5044 13.8177C15.9759 14.1217 15.4263 14.3788 14.8492 14.5927C14.8403 14.5959 14.8323 14.601 14.8255 14.6075C14.8188 14.6141 14.8135 14.6221 14.8101 14.6309C14.8066 14.6396 14.8051 14.6491 14.8056 14.6585C14.8061 14.6679 14.8086 14.6771 14.813 14.6855C15.1311 15.2926 15.4952 15.8705 15.8955 16.4193C15.9038 16.4306 15.9154 16.439 15.9287 16.4434C15.942 16.4478 15.9563 16.4481 15.9697 16.444C17.8736 15.8711 19.6668 14.9804 21.2738 13.8097C21.2816 13.8042 21.2882 13.7971 21.2931 13.7889C21.298 13.7807 21.301 13.7715 21.3021 13.762C21.7439 9.26036 20.5615 5.34906 18.1658 1.88314C18.1599 1.87188 18.1502 1.8631 18.1384 1.8584ZM7.27138 11.3901C6.22683 11.3901 5.36522 10.4454 5.36522 9.28687C5.36522 8.12744 6.21004 7.18364 7.27138 7.18364C8.34067 7.18364 9.19433 8.1354 9.17754 9.28687C9.17754 10.4463 8.33272 11.3901 7.27138 11.3901ZM14.319 11.3901C13.2735 11.3901 12.4128 10.4454 12.4128 9.28687C12.4128 8.12744 13.2568 7.18364 14.319 7.18364C15.3883 7.18364 16.2419 8.1354 16.2251 9.28687C16.2251 10.4463 15.3891 11.3901 14.319 11.3901Z" fill="currentColor"/>
</svg>
