<svg width="26" height="17" viewBox="0 0 26 17" fill="none" xmlns="http://www.w3.org/2000/svg">
<path d="M24.6685 2.73408C24.5258 2.22522 24.2479 1.76452 23.8644 1.40097C23.47 1.02623 22.9866 0.758171 22.4599 0.622094C20.4886 0.102495 12.5907 0.102495 12.5907 0.102495C9.29813 0.0650346 6.0064 0.229796 2.73405 0.595851C2.2073 0.741982 1.72484 1.01603 1.32956 1.39362C0.941173 1.76731 0.659855 2.22812 0.512898 2.73303C0.159879 4.6348 -0.0116419 6.56582 0.000647853 8.50004C-0.0119485 10.4325 0.159152 12.3629 0.512898 14.2671C0.656706 14.7699 0.936975 15.2286 1.32641 15.5991C1.71585 15.9697 2.20081 16.2373 2.73405 16.379C4.73162 16.8976 12.5907 16.8976 12.5907 16.8976C15.8874 16.9351 19.1833 16.7703 22.4599 16.4042C22.9866 16.2682 23.47 16.0001 23.8644 15.6254C24.2528 15.2548 24.5288 14.794 24.6674 14.2923C25.0296 12.3912 25.2058 10.4594 25.1933 8.52419C25.2205 6.58079 25.0446 4.63986 24.6685 2.73303V2.73408ZM10.0798 12.0942V4.90694L16.6509 8.50109L10.0798 12.0942Z" fill="#00052E"/>
</svg>
