<svg width="16" height="16" fill="none" xmlns="http://www.w3.org/2000/svg"><path d="m4.034 8.864 3.797-6.336a.192.192 0 0 1 .338 0l3.797 6.336a.245.245 0 0 1-.025.285l-3.797 1.562a.189.189 0 0 1-.287 0L4.059 9.15a.245.245 0 0 1-.025-.285z" fill="#FFD600"/><path fill-rule="evenodd" clip-rule="evenodd" d="m13.506 12.286-.392 1.884c-.02.099-.103.17-.198.17H3.084a.207.207 0 0 1-.198-.17l-.392-1.884h11.012zm.25-1.2 1.239-5.954c.04-.194-.165-.34-.316-.224L8 9.5 1.322 4.908c-.152-.115-.357.03-.317.224l1.24 5.954h11.51z" fill="#FFC700"/><path d="M6.553 2.834 7.74 1.133a.32.32 0 0 1 .52 0l1.187 1.701c.07.1.07.231 0 .332L8.26 4.867a.32.32 0 0 1-.52 0L6.552 3.166a.288.288 0 0 1 0-.332z" fill="#FF7A00"/></svg>