<svg width="16" height="16" fill="none" xmlns="http://www.w3.org/2000/svg"><path d="m4.089 5.28 2.022.673-2.022 2.022-2.022-.674L4.089 5.28z" fill="#F05D62"/><path fill-rule="evenodd" clip-rule="evenodd" d="M6.606 5.836a.51.51 0 0 1-.135.477L4.449 8.335a.51.51 0 0 1-.521.123l-2.022-.674a.51.51 0 0 1-.2-.843L3.73 4.92a.51.51 0 0 1 .52-.123l2.023.674a.51.51 0 0 1 .334.366zm-2.38.026L3.01 7.079l.941.314 1.217-1.217-.942-.314z" fill="#F05D62"/><path d="m10.829 12.019-.675-2.022-2.021 2.022.674 2.022 2.021-2.022z" fill="#F05D62"/><path fill-rule="evenodd" clip-rule="evenodd" d="M10.272 9.501a.51.51 0 0 0-.477.136l-2.022 2.022a.51.51 0 0 0-.123.521l.674 2.022a.51.51 0 0 0 .843.199l2.022-2.022a.51.51 0 0 0 .123-.521l-.674-2.022a.51.51 0 0 0-.366-.335zm-.026 2.38-1.217 1.217-.314-.942 1.217-1.216.314.941z" fill="#F05D62"/><path d="M10.154 1.91h4.044v4.044l-6.403 6.402-4.044-4.043 6.403-6.403z" fill="#2CBDF7"/><path fill-rule="evenodd" clip-rule="evenodd" d="M14.378 1.73a.254.254 0 0 1 .074.18v4.044a.255.255 0 0 1-.074.18l-6.403 6.402c-.1.1-.26.1-.36 0L3.571 8.492c-.1-.1-.1-.26 0-.36L9.974 1.73a.255.255 0 0 1 .18-.075h4.044c.067 0 .132.027.18.075zm-4.119.434L4.111 8.312l3.684 3.684 6.148-6.148V2.165H10.26z" fill="#2CBDF7"/><path d="M11.503 6.29a1.191 1.191 0 1 1-1.685-1.685 1.191 1.191 0 0 1 1.685 1.685z" fill="#fff"/><path fill-rule="evenodd" clip-rule="evenodd" d="M7.999 8.11a.764.764 0 0 1 0 1.08l-2.696 2.695-1.08-1.08 2.695-2.696a.764.764 0 0 1 1.08 0z" fill="#F05D62"/><path d="m2.489 9.575 1.01 1.011-1.01 1.011-1.011-1.01 1.01-1.012zM5.521 12.608l1.011 1.01-1.01 1.012-1.011-1.011 1.01-1.011zM2.239 12.865l1.01 1.011-1.01 1.011-1.011-1.01 1.01-1.012z" fill="#FFD600"/></svg>